<svg xmlns="http://www.w3.org/2000/svg" viewBox="0 0 500 500"><g id="freepik--background-complete--inject-506"><path d="M84.39,407.25V387.8a2.32,2.32,0,0,1,2.32-2.32h.86a2.32,2.32,0,0,1,2.32,2.32v.91h14.43v4.94H90.08v13.6Z" style="fill:#ebebeb"></path><rect x="68.15" y="411.16" width="38.17" height="61.72" rx="2.29" style="fill:#e0e0e0"></rect><path d="M79.34,403.33H96a1.05,1.05,0,0,1,1.05,1.05v6.78a0,0,0,0,1,0,0H78.28a0,0,0,0,1,0,0v-6.78A1.05,1.05,0,0,1,79.34,403.33Z" style="fill:#e0e0e0"></path><rect x="87.24" y="420.77" width="16.54" height="40.84" style="fill:#ebebeb"></rect><path d="M97.06,411c0,.33-4.31.6-9.62.6s-9.63-.27-9.63-.6,4.31-.6,9.63-.6S97.06,410.62,97.06,411Z" style="fill:#ebebeb"></path><path d="M70.5,451.76c-.33,0-.6-8.06-.6-18s.27-18,.6-18,.6,8.05.6,18S70.83,451.76,70.5,451.76Z" style="fill:#fafafa"></path><rect x="45.83" y="447.28" width="41.41" height="25.67" style="fill:#f5f5f5"></rect><path d="M86.74,456.72c0,.27-9.06.5-20.23.5s-20.23-.23-20.23-.5,9-.51,20.23-.51S86.74,456.44,86.74,456.72Z" style="fill:#e0e0e0"></path><rect x="59.98" y="461.22" width="26.76" height="6.62" style="fill:#fff"></rect><rect x="303.17" y="29.53" width="165.55" height="239.96" style="fill:#e0e0e0"></rect><rect x="294.88" y="29.53" width="165.55" height="239.96" style="fill:#f5f5f5"></rect><rect x="315.45" y="55.52" width="124.41" height="187.98" style="fill:#fff"></rect><path d="M439.86,243.5s0-.32,0-.92,0-1.51,0-2.67c0-2.36,0-5.82-.05-10.31,0-9-.06-22.14-.11-38.72,0-33.15-.12-80.09-.2-135.36l.41.41-124.4,0h0l.45-.45c0,70.91-.07,136.29-.09,188l-.36-.36,90.56.19,25,.09,6.56,0c1.49,0,2.27,0,2.27,0l-2.19,0-6.5,0-24.94.09-90.78.19h-.36v-.36c0-51.69-.06-117.07-.09-188v-.45h.46l124.4,0h.42v.42c-.09,55.38-.16,102.42-.21,135.63,0,16.54-.08,29.64-.11,38.63,0,4.45,0,7.88,0,10.23,0,1.14,0,2,0,2.62S439.86,243.5,439.86,243.5Z" style="fill:#e0e0e0"></path><path d="M460.9,29.53A30.08,30.08,0,0,1,458,33.81c-1.93,2.58-4.66,6.07-7.77,9.86s-6,7.13-8.19,9.51a28.73,28.73,0,0,1-3.64,3.72,30.8,30.8,0,0,1,3.16-4.13l8-9.68,8-9.67A29.57,29.57,0,0,1,460.9,29.53Z" style="fill:#e0e0e0"></path><path d="M440.5,242.89A153.81,153.81,0,0,0,462.2,270" style="fill:#fff"></path><path d="M462.2,270a24.68,24.68,0,0,1-3.79-3.44A121.7,121.7,0,0,1,443,247.34a24.14,24.14,0,0,1-2.52-4.45,35.38,35.38,0,0,1,3.05,4.09c1.82,2.56,4.39,6.07,7.38,9.81s5.85,7,7.95,9.36A36.67,36.67,0,0,1,462.2,270Z" style="fill:#e0e0e0"></path><path d="M294.86,269.3l21.68-26.76" style="fill:#fff"></path><path d="M316.54,242.54c.19.16-4.5,6.28-10.49,13.66s-11,13.25-11.19,13.1,4.5-6.28,10.49-13.66S316.35,242.39,316.54,242.54Z" style="fill:#e0e0e0"></path><path d="M294.88,29.53c.2-.16,4.91,5.48,10.53,12.58s10,13,9.82,13.14-4.91-5.48-10.53-12.58S294.69,29.68,294.88,29.53Z" style="fill:#e0e0e0"></path><path d="M315.89,83.82c8.63-9.3,24.91-13.51,36.6-8.56a31.94,31.94,0,0,1,18.94,30.31c11.85,2,21,12.65,23.73,24.34s.08,24.08-4.63,35.13c-1.92,4.51-4.2,8.93-5.1,13.75s-.19,10.24,3.21,13.77c4,4.21,10.51,4.6,15.91,6.81,7.9,3.23,13.56,10.55,16.71,18.49s4.1,16.54,5,25H316.54Z" style="fill:#f5f5f5"></path><path d="M322.21,219.4c-.12-.1,24-27.11,53.86-60.3s54.18-60,54.3-59.93-24,27.1-53.87,60.31S322.32,219.51,322.21,219.4Z" style="fill:#fafafa"></path><path d="M418.88,92.74c.12.11-15.08,17-33.93,37.8S350.71,168.06,350.59,168s15.08-17,33.94-37.8S418.76,92.64,418.88,92.74Z" style="fill:#fafafa"></path><path d="M411.92,143.87a4.59,4.59,0,0,1-.57.64l-1.73,1.76-6.4,6.42c-5.39,5.44-12.77,13-20.71,21.59s-14.95,16.49-20,22.28l-5.92,6.86q-1,1.16-1.62,1.86a4.71,4.71,0,0,1-.6.62,5.51,5.51,0,0,1,.51-.69c.38-.49.9-1.13,1.54-1.93,1.34-1.67,3.32-4.06,5.79-7,4.94-5.85,11.9-13.82,19.85-22.4s15.38-16.12,20.84-21.48c2.74-2.69,5-4.84,6.53-6.3l1.81-1.68A4.44,4.44,0,0,1,411.92,143.87Z" style="fill:#fafafa"></path><path d="M129.67,80.46h-3.06V74.25c0-2-1.36-3.65-3-3.65H100.26c-1.67,0-3,1.64-3,3.65v6.21H94.17V74.25c0-3.82,2.73-6.93,6.09-6.93h23.32c3.36,0,6.09,3.11,6.09,6.93Z" style="fill:#ebebeb"></path><rect x="51.34" y="80.46" width="120.7" height="86.38" rx="9.13" style="fill:#ebebeb"></rect><rect x="108.3" y="106.21" width="7.24" height="34.72" style="fill:#f5f5f5"></rect><rect x="108.05" y="107.35" width="7.75" height="32.44" transform="translate(-11.64 235.49) rotate(-90)" style="fill:#f5f5f5"></rect><path d="M138.86,123.65a4.37,4.37,0,0,1-.05-.47c0-.34-.05-.79-.09-1.37,0-.31,0-.64-.06-1s-.12-.77-.18-1.21a22.9,22.9,0,0,0-.57-3,28.44,28.44,0,0,0-3-7.65,28,28,0,0,0-6.84-8.14,25.9,25.9,0,0,0-11.29-5.35,25.3,25.3,0,0,0-14.07,1.26,27.66,27.66,0,0,0-3.49,1.65,27.35,27.35,0,0,0-3.28,2.26,30.2,30.2,0,0,0-3,2.76,33.07,33.07,0,0,0-2.63,3.32,28.57,28.57,0,0,0-3.82,7.89,30.27,30.27,0,0,0,0,18.07,28.5,28.5,0,0,0,3.82,7.9,33,33,0,0,0,2.62,3.32,31.43,31.43,0,0,0,3,2.76,27.35,27.35,0,0,0,3.28,2.26,27.66,27.66,0,0,0,3.49,1.65,25.3,25.3,0,0,0,14.07,1.26,25.9,25.9,0,0,0,11.29-5.35,28,28,0,0,0,6.84-8.14,28.44,28.44,0,0,0,3-7.65,22.9,22.9,0,0,0,.57-3c.06-.44.14-.84.18-1.21s0-.71.06-1c0-.58.07-1,.09-1.37a4.37,4.37,0,0,1,.05-.47,3.36,3.36,0,0,1,0,.47c0,.34,0,.8,0,1.38l0,1c0,.38-.1.78-.15,1.22a22.6,22.6,0,0,1-.53,3,29.14,29.14,0,0,1-9.81,16.08,26.29,26.29,0,0,1-11.45,5.51,25.61,25.61,0,0,1-14.34-1.24A27.23,27.23,0,0,1,99,149.43a27.65,27.65,0,0,1-3.35-2.3,30.35,30.35,0,0,1-3.11-2.81,34.43,34.43,0,0,1-2.68-3.39,28.85,28.85,0,0,1-3.91-8.06,30.88,30.88,0,0,1,0-18.45,28.92,28.92,0,0,1,3.91-8A33.29,33.29,0,0,1,92.5,103a31.44,31.44,0,0,1,3.11-2.81A27.3,27.3,0,0,1,99,97.87a28.67,28.67,0,0,1,3.56-1.67A25.69,25.69,0,0,1,116.86,95a26.39,26.39,0,0,1,11.45,5.5,29.14,29.14,0,0,1,9.81,16.08,23,23,0,0,1,.53,3c0,.44.12.84.15,1.21l0,1c0,.58,0,1,0,1.38A3.36,3.36,0,0,1,138.86,123.65Z" style="fill:#f5f5f5"></path><rect x="27.04" y="159.79" width="179.18" height="17.01" style="fill:#e0e0e0"></rect><rect x="173.73" y="171.03" width="7.66" height="18.85" style="fill:#e0e0e0"></rect><rect x="47.51" y="171.16" width="7.66" height="18.85" style="fill:#e0e0e0"></rect><path d="M150.81,105.18V95.63h-6.28v9.55h-6.31v54.61h18.45V105.18Z" style="fill:#fafafa"></path><path d="M171.75,105.18V95.63h-6.28v9.55h-6.31v54.61h18.45V105.18Z" style="fill:#f5f5f5"></path><rect x="34.59" y="124.31" width="33.15" height="35.48" style="fill:#f5f5f5"></rect><path d="M67.58,133.42c0,.23-7.32.42-16.35.42s-16.34-.19-16.34-.42,7.32-.41,16.34-.41S67.58,133.2,67.58,133.42Z" style="fill:#ebebeb"></path><path d="M52.42,138.11s.13,0,.34,0a2.72,2.72,0,0,1,.88.44,5.13,5.13,0,0,1,1.82,3.27,7.9,7.9,0,0,1-.85,5.58A5,5,0,0,1,52,149.54a5.85,5.85,0,0,1-3.44,0A6.32,6.32,0,0,1,44,144.76a5.9,5.9,0,0,1,1.56-5.37,5,5,0,0,1,3.3-1.42,2.16,2.16,0,0,1,1.28.22c0,.08-.46,0-1.26.1a5.09,5.09,0,0,0-3,1.53,5.33,5.33,0,0,0-1.23,4.77,5.59,5.59,0,0,0,4.11,4.11,5.19,5.19,0,0,0,3,.06A4.22,4.22,0,0,0,54,147a7.42,7.42,0,0,0,.9-5,5.14,5.14,0,0,0-1.46-3.12C52.85,138.32,52.4,138.19,52.42,138.11Z" style="fill:#ebebeb"></path></g><g id="freepik--Table--inject-506"><path d="M461.54,473.12c0,.15-94.68.26-211.44.26s-211.45-.11-211.45-.26,94.65-.26,211.45-.26S461.54,473,461.54,473.12Z" style="fill:#263238"></path></g><g id="freepik--cosmetics-2--inject-506"><path d="M416,407.25V387.8a2.32,2.32,0,0,1,2.32-2.32h.87a2.32,2.32,0,0,1,2.32,2.32v.91h14.43v4.94H421.68v13.6Z" style="fill:#263238"></path><rect x="399.74" y="411.16" width="38.17" height="61.72" rx="2.29" style="fill:#C53F3F"></rect><path d="M410.93,403.33H427.6a1.05,1.05,0,0,1,1.05,1.05v6.78a0,0,0,0,1,0,0H409.88a0,0,0,0,1,0,0v-6.78A1.05,1.05,0,0,1,410.93,403.33Z" style="fill:#C53F3F"></path><rect x="418.83" y="420.77" width="16.54" height="40.84" style="fill:#ebebeb"></rect><path d="M428.65,411c0,.33-4.31.6-9.62.6s-9.62-.27-9.62-.6,4.3-.6,9.62-.6S428.65,410.62,428.65,411Z" style="fill:#263238"></path><path d="M402.09,451.76c-.33,0-.6-8.06-.6-18s.27-18,.6-18,.6,8.05.6,18S402.42,451.76,402.09,451.76Z" style="fill:#fafafa"></path><rect x="350.68" y="447.21" width="41.41" height="25.67" style="fill:#455a64"></rect><path d="M391.6,456.65c0,.28-9.06.5-20.24.5s-20.23-.22-20.23-.5,9.06-.51,20.23-.51S391.6,456.37,391.6,456.65Z" style="fill:#263238"></path><rect x="364.83" y="461.15" width="26.76" height="6.62" style="fill:#fff"></rect><rect x="342.78" y="421.55" width="41.41" height="25.67" style="fill:#C53F3F"></rect><path d="M382.66,431c0,.28-9.06.51-20.23.51s-20.23-.23-20.23-.51,9.05-.5,20.23-.5S382.66,430.72,382.66,431Z" style="fill:#263238"></path><rect x="355.9" y="435.5" width="26.76" height="6.62" style="fill:#fff"></rect></g><g id="freepik--cosmetic-1--inject-506"><rect x="91.82" y="447.28" width="41.41" height="25.67" style="fill:#455a64"></rect><path d="M131.7,456.72c0,.27-9.06.5-20.23.5s-20.23-.23-20.23-.5,9.05-.51,20.23-.51S131.7,456.44,131.7,456.72Z" style="fill:#263238"></path><rect x="104.94" y="461.22" width="26.76" height="6.62" style="fill:#fff"></rect></g><g id="freepik--speech-bubble--inject-506"><path d="M326.34,159.68l13.4-.78a43.19,43.19,0,1,0-9.26-12.41v0Z" style="fill:#fff"></path><path d="M326.34,159.68s.07-.27.24-.83.43-1.42.76-2.52c.69-2.26,1.7-5.58,3-9.89l.06-.19.13.15h0l-.19.13a43.28,43.28,0,0,1-4.56-20.72,42.4,42.4,0,0,1,.74-6.67,49,49,0,0,1,2-6.92,43.09,43.09,0,0,1,21.71-23.94,43.67,43.67,0,0,1,18.1-4.37,43.12,43.12,0,0,1,19.33,4.18,42.47,42.47,0,0,1,16,13.06c.52.72,1.07,1.43,1.57,2.16s.92,1.52,1.37,2.28l.69,1.14.57,1.19c.38.8.76,1.59,1.13,2.38s.62,1.64.92,2.46a21.65,21.65,0,0,1,.82,2.47,39,39,0,0,1,1.12,5.05,43.32,43.32,0,0,1-24.63,46.33A43,43,0,0,1,372,170.49a46.65,46.65,0,0,1-7.21-.09,55,55,0,0,1-6.61-1.19A42.92,42.92,0,0,1,339.67,159l.08,0-10,.52-2.55.12-.84,0,.89-.07,2.57-.17,9.94-.65h0l0,0a43,43,0,0,0,18.48,10.06,58.63,58.63,0,0,0,6.57,1.16,47.22,47.22,0,0,0,7.15.06,42.78,42.78,0,0,0,39.37-49.72,37.71,37.71,0,0,0-1.1-5,24.21,24.21,0,0,0-.81-2.45c-.31-.8-.57-1.63-.91-2.42s-.75-1.57-1.12-2.36l-.57-1.17-.68-1.13-1.35-2.25c-.5-.72-1-1.42-1.56-2.14a43,43,0,0,0-35-17A43.18,43.18,0,0,0,336.84,99a42.77,42.77,0,0,0-7.95,13.32,48.37,48.37,0,0,0-2,6.86,41.75,41.75,0,0,0-.76,6.61,43.32,43.32,0,0,0,4.42,20.61l.36.73-.54-.61h0l.19-.05-3.12,9.78-.82,2.53Z" style="fill:#263238"></path><polygon points="348.67 130.13 354.25 124.55 365.02 134.12 386.16 113.78 391.34 119.36 364.22 144.89 348.67 130.13" style="fill:#C53F3F"></polygon></g><g id="freepik--Character--inject-506"><path d="M309.24,306.05s7.07,20.76,45.28,62.59c14.09,15.42,26,16.43,35.34,9.4,15.65-11.81-1.41-37.06-1.41-37.06l-51-69.16c-4.3-5.83-9.73-9.36-16.4-10.38Z" style="fill:#ffbf9d"></path><path d="M188.73,306.36l-15.61-35.29s-22.54,7.07-27.41,35.94c-3.77,22.35,1.14,98.5,1.14,98.5l27.39,23.88c10.95-26,12.31-75.62,12.31-75.62Z" style="fill:#ffbf9d"></path><polygon points="334.03 473.12 312.68 408.97 324.91 331.08 323.57 261.1 276.83 252.17 221.2 254.09 173.12 270.52 182.86 326.17 187.9 410.21 176.21 473.12 334.03 473.12" style="fill:#C53F3F"></polygon><path d="M143.24,316.59l43.56,22L183,267.15s-26.41,8.44-32.94,25.82S143.24,316.59,143.24,316.59Z" style="fill:#C53F3F"></path><path d="M322.63,329.34,330,340.66l15.12-21.07L332.9,266.88s-5.62-6.63-14.4-5.83Z" style="fill:#C53F3F"></path><path d="M327.29,280.09a3.64,3.64,0,0,1,.06.74c0,.54,0,1.24.06,2.13,0,1.84.08,4.51.06,7.81,0,6.6-.3,15.72-1,25.76s-1.84,19.1-2.78,25.63c-.47,3.27-.89,5.91-1.21,7.72-.16.87-.28,1.57-.38,2.09a3.54,3.54,0,0,1-.17.73A5.59,5.59,0,0,1,322,352c.07-.53.16-1.23.28-2.11.25-1.88.61-4.51,1-7.74.86-6.53,1.88-15.59,2.63-25.62s1.07-19.13,1.19-25.72c0-3.26.08-5.91.11-7.81q0-1.32,0-2.13A4.35,4.35,0,0,1,327.29,280.09Z" style="fill:#263238"></path><path d="M175.28,311.35c.14-.05,2.45,6,5.16,13.62s4.81,13.74,4.67,13.79-2.45-6.05-5.16-13.62S175.14,311.4,175.28,311.35Z" style="fill:#263238"></path><path d="M285.15,416.94c0,.14-14.32,1.33-32,2.65s-32,2.28-32,2.14,14.31-1.34,32-2.66S285.14,416.79,285.15,416.94Z" style="fill:#263238"></path><path d="M275,379.38a10.61,10.61,0,0,1-1.41,1.06c-.92.67-2.28,1.59-4,2.72-3.38,2.25-8.13,5.25-13.5,8.35s-10.34,5.71-14,7.51c-1.82.9-3.3,1.61-4.33,2.08a13.58,13.58,0,0,1-1.63.69,10,10,0,0,1,1.54-.87l4.26-2.23c3.59-1.88,8.53-4.54,13.89-7.63s10.13-6,13.56-8.21l4.06-2.57A11.15,11.15,0,0,1,275,379.38Z" style="fill:#263238"></path><path d="M306.8,335.61s-.09-.19-.24-.56l-.64-1.68c-.55-1.49-1.36-3.66-2.4-6.45l-3.78-10.22c-.74-2-1.52-4.12-2.36-6.38a48,48,0,0,0-2.95-7,14.64,14.64,0,0,0-2.38-3.26,7.82,7.82,0,0,0-3.54-2.14,6.85,6.85,0,0,0-2.12-.25,7.45,7.45,0,0,0-2.13.46,9.81,9.81,0,0,0-3.7,2.55,12.24,12.24,0,0,0-2.45,4,17.15,17.15,0,0,0-.89,4.78,67.16,67.16,0,0,0,.72,10.25c.34,3.51.47,7.27-.82,10.84a11.08,11.08,0,0,1-3.16,4.7,11.35,11.35,0,0,1-5.22,2.48A13.7,13.7,0,0,1,257.5,335a12.15,12.15,0,0,1-3.47-5,25.78,25.78,0,0,1-1.47-5.95c-.58-4.05-.68-8.12-2.19-11.78a13.79,13.79,0,0,0-3.08-4.87,8.27,8.27,0,0,0-2.31-1.63,8.67,8.67,0,0,0-1.31-.51,13.15,13.15,0,0,0-1.37-.25,8.72,8.72,0,0,0-5.29,1.33,13.85,13.85,0,0,0-3.92,3.82,16.41,16.41,0,0,0-2.32,4.85,21.21,21.21,0,0,0-.72,5.24c-.1,3.52.34,6.94.56,10.29a48.71,48.71,0,0,1,.12,5,17.71,17.71,0,0,1-.71,4.78,12.9,12.9,0,0,1-5.22,7.39,6.61,6.61,0,0,1-4.23.91,7.38,7.38,0,0,1-3.8-1.67,21,21,0,0,1-4.64-6.08c-1.2-2.09-2.23-4.12-3.13-6a76.3,76.3,0,0,1-3.86-10.19c-.87-2.87-1.37-5.14-1.68-6.69-.16-.77-.25-1.36-.32-1.76s-.09-.6-.09-.6.06.2.14.59.19,1,.37,1.75c.34,1.54.88,3.8,1.77,6.65a78.49,78.49,0,0,0,3.94,10.13c.9,1.91,1.94,3.93,3.15,6a20.82,20.82,0,0,0,4.58,5.95,7,7,0,0,0,3.62,1.58,6.28,6.28,0,0,0,4-.87,12.5,12.5,0,0,0,5-7.18,17.12,17.12,0,0,0,.69-4.67,48,48,0,0,0-.14-4.92c-.23-3.33-.67-6.77-.58-10.33a21.89,21.89,0,0,1,.73-5.36,16.83,16.83,0,0,1,2.38-5,14.59,14.59,0,0,1,4.06-4,9.3,9.3,0,0,1,5.61-1.41,12.47,12.47,0,0,1,1.46.27,9.19,9.19,0,0,1,1.4.54,8.64,8.64,0,0,1,2.44,1.72,14.29,14.29,0,0,1,3.2,5.05c1.55,3.76,1.65,7.9,2.23,11.9a26,26,0,0,0,1.43,5.83,11.8,11.8,0,0,0,3.32,4.77,13.2,13.2,0,0,0,10.81,2.65,11,11,0,0,0,5-2.36,10.76,10.76,0,0,0,3-4.49c1.25-3.44,1.14-7.14.81-10.62a66.13,66.13,0,0,1-.71-10.33,17.58,17.58,0,0,1,.94-4.91,12.61,12.61,0,0,1,2.54-4.12,10.16,10.16,0,0,1,3.87-2.65,7,7,0,0,1,4.51-.21,8.15,8.15,0,0,1,3.7,2.26,15.2,15.2,0,0,1,2.43,3.35,48.68,48.68,0,0,1,2.94,7.06c.82,2.26,1.6,4.39,2.32,6.39l3.7,10.25c1,2.8,1.78,5,2.31,6.49.26.73.45,1.29.59,1.69S306.8,335.61,306.8,335.61Z" style="fill:#fff"></path><path d="M197.35,96c-11.4-.41-22.79,5.39-28,14.25a24,24,0,0,0,3.21,28.11c-5.62,2.34-7.75,9.38-4.18,13.83s11.89,5.12,16.33,1.32c-2.67,5,.27,11.33,5.66,14.14s12.45,2.41,18-.1A32.1,32.1,0,0,0,221.49,156l2.38-43.79C219.55,103,208.75,96.4,197.35,96Z" style="fill:#263238"></path><path d="M193.27,161.39a15.31,15.31,0,0,1,.7-20c-3.05-3.48-2.2-9,.64-12.67s7.17-5.83,11.35-7.89c2-10.55,13.73-18.32,24.49-16.17,5.28-8.17,17.07-9.83,26.66-7.45,2.34.57,4.69,1.35,7.1,1.25a39.14,39.14,0,0,0,5.23-.89c9.61-1.59,19.43,4.71,23.51,13.35a17.17,17.17,0,0,0,2.2,4c1.3,1.53,3.24,2.39,4.9,3.55a15,15,0,0,1,6.31,10.92c.29,3.65-.77,7.58.93,10.85.85,1.63,2.33,2.93,3,4.64,2,5-3.56,10.3-2.31,15.48.25,1.06.78,2,1.12,3.07a9.09,9.09,0,0,1-.35,6.51c-.7,1.57-1.88,3-1.92,4.73a14.5,14.5,0,0,0,.92,3.78c.76,3.1-5.7,15.34-8.39,17.13L217,199.16a15.21,15.21,0,0,1-12.38-12.53,5.35,5.35,0,0,0-.88-2.93,6.54,6.54,0,0,0-2.3-1.35c-5.41-2.6-6.3-9.69-5.95-15.56a7.25,7.25,0,0,0-.14-2.46A9,9,0,0,0,193.27,161.39Z" style="fill:#263238"></path><path d="M216.88,160.69c-.75-14.22,7.81-30.89,22.05-38.35,9-4.7,16.1-5,20.88-5.69A34.12,34.12,0,0,1,279.39,120c4.58.89,21.77,15.19,23.21,31.3,1.61,17.9,2.85,39.82,1,53.25-3.71,27-27.16,31-27.16,31s-.14,17.51-.14,17.51h0c-13.11,19.66-39.61,20.77-55.05,2.88l0-.06Z" style="fill:#ffbf9d"></path><path d="M264.37,201.83a5.22,5.22,0,0,1,1.6-3.39,5.62,5.62,0,0,1,6.65-.89c2.14,1.2,2.59,3.5,2.42,6.13h0c-1,1.61-1.73,3.19-3.64,3.5-.3,0-.6.08-.9.1a6.16,6.16,0,0,1-4.19-1.26A5.21,5.21,0,0,1,264.37,201.83Z" style="fill:#ff9a6c"></path><path d="M293.09,174.52a3.48,3.48,0,0,1-3.32,3.56,3.35,3.35,0,0,1-3.72-3,3.48,3.48,0,0,1,3.32-3.56A3.35,3.35,0,0,1,293.09,174.52Z" style="fill:#263238"></path><path d="M296.53,161.74c-.42.46-3.15-1.41-6.95-1.31s-6.55,2-7,1.58c-.21-.2.22-1,1.41-1.91a9.76,9.76,0,0,1,5.56-1.82,9.5,9.5,0,0,1,5.56,1.6C296.33,160.73,296.74,161.53,296.53,161.74Z" style="fill:#263238"></path><path d="M275,191.58c0-.21,2.33-.66,6.15-1.23,1-.12,1.89-.33,2-1s-.22-1.71-.72-2.8l-3.05-7.15c-4.24-10.18-7.34-18.56-6.92-18.72s4.2,8,8.45,18.13c1,2.52,2,4.91,2.93,7.2.4,1.07,1.06,2.27.6,3.71a2.41,2.41,0,0,1-1.56,1.42,6.81,6.81,0,0,1-1.65.26C277.42,191.72,275,191.79,275,191.58Z" style="fill:#263238"></path><path d="M276.54,235.44a72,72,0,0,1-37.28-8.72s9.41,19.08,36.93,15.91Z" style="fill:#ff9a6c"></path><path d="M293.66,147c-.62.92-3.54.38-6.94.74s-6.19,1.3-7,.5c-.35-.39,0-1.29,1.16-2.22a11,11,0,0,1,11.2-1C293.43,145.69,293.93,146.51,293.66,147Z" style="fill:#263238"></path><path d="M252.64,176.18a3.49,3.49,0,0,0,3.63,3.26,3.34,3.34,0,0,0,3.44-3.32,3.51,3.51,0,0,0-3.62-3.27A3.34,3.34,0,0,0,252.64,176.18Z" style="fill:#263238"></path><path d="M244.53,164.44c.46.42,3-1.67,6.81-1.89s6.7,1.46,7.08,1c.19-.21-.31-1-1.57-1.78a9.89,9.89,0,0,0-5.71-1.35,9.49,9.49,0,0,0-5.39,2.07C244.64,163.41,244.3,164.25,244.53,164.44Z" style="fill:#263238"></path><path d="M244,149.89c.8.8,3.67-.25,7.19-.51s6.55.17,7.18-.75c.27-.44-.25-1.26-1.61-2a11.16,11.16,0,0,0-5.94-1,10.85,10.85,0,0,0-5.63,2C244,148.61,243.64,149.5,244,149.89Z" style="fill:#263238"></path><path d="M222,186.08c-.05-2-2.54-6.67-4.58-6.93-5.43-.7-15.18,0-14.93,13.38.33,18.34,19.13,14.23,19.16,13.7S222.15,193,222,186.08Z" style="fill:#ffbf9d"></path><path d="M216.3,199.62c-.08-.06-.32.23-.87.49a3.37,3.37,0,0,1-2.45.09c-2-.68-3.73-3.72-3.88-7a10.34,10.34,0,0,1,.83-4.59,3.72,3.72,0,0,1,2.42-2.49,1.66,1.66,0,0,1,2,.84c.26.5.15.87.25.9s.4-.31.23-1.07a2,2,0,0,0-.76-1.13,2.55,2.55,0,0,0-1.82-.44,4.58,4.58,0,0,0-3.37,2.91,10.56,10.56,0,0,0-1,5.13c.19,3.69,2.19,7.12,4.92,7.84a3.61,3.61,0,0,0,3-.54C216.27,200.07,216.36,199.65,216.3,199.62Z" style="fill:#ff9a6c"></path><path d="M306.78,151.42c-3.86-2.22-6.36-5.32-6.24-9.68-2.5.79-5.13-2.31-6.66-4.4s-3.35-3.12-3.3-5.68a2.78,2.78,0,0,0-.23-1.49,3.24,3.24,0,0,0-2.08-1.12,12.45,12.45,0,0,1-8.51-8.33,27.16,27.16,0,0,1-12.82,2.39,10.32,10.32,0,0,1-17.25-.31,9.11,9.11,0,0,1-6,4.54,27.76,27.76,0,0,1-7.78.61A10.48,10.48,0,0,1,229.13,140c-.67.22-1.43.44-1.73,1.06s.07,1.38.35,2c1.75,4.16-1,9.51-5.41,10.68a6.09,6.09,0,0,1-.32,9.69c-.68.42-1.56.92-1.43,1.69a1.69,1.69,0,0,0,.43.77c1.45,1.78,2.89,3.73,3.12,6s-1.27,4.84-3.6,5c1.25,1,2.43,2.36,2.5,4s-1.55,3.25-3.08,2.72c-.66-.23-10.06-1.8-10.49-2.33-5.5-6.92,1-14.86,1.29-23.61s3.21-17.28,7.49-25a41.17,41.17,0,0,1,6.44-9A56.58,56.58,0,0,1,234.83,116c4.68-3,9.49-6,14.9-7.38,10.08-2.59,20.71.75,30.27,4.78a44.32,44.32,0,0,1,10.36,5.62,39.22,39.22,0,0,1,8.89,10.75c3.5,5.75,6.45,12,7.28,18.61" style="fill:#263238"></path><path d="M310.3,144.91a7,7,0,0,0-1.07-1.94c-.41-.6-1-1.3-1.55-2.19a8.42,8.42,0,0,1-1.14-3.4,25.17,25.17,0,0,1,0-4.54,19.68,19.68,0,0,0-.3-5.44,15.12,15.12,0,0,0-5-8.25,23.36,23.36,0,0,0-3-2.08,11.53,11.53,0,0,1-2.92-2.33,14.87,14.87,0,0,1-1.88-3.4,23.9,23.9,0,0,0-4.75-7,24.65,24.65,0,0,0-7.43-5.28,23.18,23.18,0,0,0-4.57-1.54,21.46,21.46,0,0,0-4.95-.42,24.13,24.13,0,0,0-2.53.27c-.84.14-1.66.34-2.49.5a12.3,12.3,0,0,1-5,.14c-1.69-.28-3.36-.83-5.1-1.21a33.59,33.59,0,0,0-10.86-.68,28.94,28.94,0,0,0-5.49,1.13,18.5,18.5,0,0,0-9.29,6.34l-.68.92.3-.13A21.43,21.43,0,0,0,214.42,108a20.39,20.39,0,0,0-8.73,12.78l.15-.19a61.59,61.59,0,0,0-6.5,3.57,19.74,19.74,0,0,0-5.25,4.83,12.5,12.5,0,0,0-2.27,6.4,8.54,8.54,0,0,0,2,6.15v-.31a15,15,0,0,0-4.07,9.53,15.28,15.28,0,0,0,2.2,9.06,15.63,15.63,0,0,0,1.3,1.78c.47.55,1,1.06,1.34,1.61a3.89,3.89,0,0,1,.72,1.78,11,11,0,0,1,0,1.9,29.23,29.23,0,0,0,.39,7,14.46,14.46,0,0,0,2,5.25,9.27,9.27,0,0,0,3,2.9c1,.59,1.85.81,2.33,1.14a3.29,3.29,0,0,1,.7.54,2.19,2.19,0,0,0-.66-.6c-.48-.35-1.35-.6-2.3-1.2a9.12,9.12,0,0,1-2.9-2.89,14.3,14.3,0,0,1-1.91-5.19,29.88,29.88,0,0,1-.33-6.89,10.65,10.65,0,0,0,0-2,4.14,4.14,0,0,0-.77-1.94,21,21,0,0,0-1.35-1.64,13.72,13.72,0,0,1-1.25-1.74,14.83,14.83,0,0,1-2.1-8.84,14.54,14.54,0,0,1,4-9.24l.14-.15-.13-.16a8,8,0,0,1-1.84-5.83,12,12,0,0,1,2.2-6.13,19.09,19.09,0,0,1,5.13-4.69,60.07,60.07,0,0,1,6.44-3.53l.12,0,0-.13a19.88,19.88,0,0,1,8.51-12.44A20.93,20.93,0,0,1,230.4,105l.18,0,.11-.16c.22-.29.44-.59.65-.89a18,18,0,0,1,9-6.14,28.47,28.47,0,0,1,5.37-1.11,32.77,32.77,0,0,1,10.67.67c1.72.36,3.4.91,5.14,1.2a12.94,12.94,0,0,0,2.64.2,15.71,15.71,0,0,0,2.58-.35c.84-.17,1.66-.36,2.48-.51s1.63-.24,2.45-.26a19.84,19.84,0,0,1,4.82.4A22.35,22.35,0,0,1,281,99.52a24.44,24.44,0,0,1,7.3,5.16,23.29,23.29,0,0,1,4.69,6.83,15.3,15.3,0,0,0,1.95,3.49,11.88,11.88,0,0,0,3,2.4,23.83,23.83,0,0,1,3,2,15,15,0,0,1,2.33,2.46,14.75,14.75,0,0,1,2.61,5.58,19.49,19.49,0,0,1,.34,5.36,25.37,25.37,0,0,0,.09,4.58,8.43,8.43,0,0,0,1.22,3.45c.58.91,1.17,1.59,1.6,2.17a11.64,11.64,0,0,1,.9,1.38A5.33,5.33,0,0,0,310.3,144.91Z" style="fill:#455a64"></path><path d="M239.16,100.41s.49-.29,1.39-.75a12.77,12.77,0,0,1,4.07-1.27,12,12,0,0,1,12,5.53,9.89,9.89,0,0,1,1,2,2.26,2.26,0,0,1-.08,1.93l-.44.64.75-.23a8,8,0,0,1,5.83.52,7.44,7.44,0,0,1,3.28,3.31,7.84,7.84,0,0,1,.82,3c0,.74,0,1.14,0,1.14s0-.09.08-.29a6.82,6.82,0,0,0,.07-.85,7.38,7.38,0,0,0-.69-3.15,7.59,7.59,0,0,0-3.38-3.57,8.34,8.34,0,0,0-6.22-.62l.32.4a2.73,2.73,0,0,0,.16-2.39,10.67,10.67,0,0,0-1.05-2.18,12.48,12.48,0,0,0-6.05-5,12.27,12.27,0,0,0-6.45-.63,12,12,0,0,0-4.11,1.47,8.87,8.87,0,0,0-1,.66A1.56,1.56,0,0,0,239.16,100.41Z" style="fill:#455a64"></path><path d="M209.26,122.28a2.9,2.9,0,0,0,.68.63,11.78,11.78,0,0,0,2.16,1.39,9.34,9.34,0,0,0,3.78,1,6.87,6.87,0,0,0,4.63-1.5l-.42-.06.57.74c.21.24.44.47.67.71a11.44,11.44,0,0,0,4.77,2.72,11.69,11.69,0,0,0,4.49.43,10.56,10.56,0,0,0,2.95-.73,3.91,3.91,0,0,0,1-.54,17,17,0,0,1-3.94.88,12.21,12.21,0,0,1-4.31-.52,11.38,11.38,0,0,1-4.52-2.63c-.21-.23-.43-.44-.63-.67l-.54-.69-.2-.25-.22.19a6.42,6.42,0,0,1-4.25,1.43,9.28,9.28,0,0,1-3.62-.84C210.32,123.07,209.32,122.19,209.26,122.28Z" style="fill:#455a64"></path><path d="M199.81,139.55s0,.12.05.33a3,3,0,0,0,.45.88,5,5,0,0,0,3.08,1.88,9.79,9.79,0,0,0,5.35-.71,30.52,30.52,0,0,0,2.93-1.22,5,5,0,0,0,2.53-2.38c0-.1.08-.2.11-.29l-.44.14a22,22,0,0,0,5.67,3.12,9.94,9.94,0,0,0,5.29.39,7,7,0,0,0,3.21-1.53,3.92,3.92,0,0,0,.66-.7c.13-.18.19-.27.18-.28s-.33.32-1,.81a7.41,7.41,0,0,1-3.15,1.32,9.75,9.75,0,0,1-5-.49,22.45,22.45,0,0,1-5.5-3.09l-.31-.22-.13.37-.09.25a4.61,4.61,0,0,1-2.27,2.1,30.29,30.29,0,0,1-2.86,1.22,9.54,9.54,0,0,1-5.08.81,5,5,0,0,1-3-1.63A7.39,7.39,0,0,1,199.81,139.55Z" style="fill:#455a64"></path><path d="M263.67,198.39c.45-.29,2.32,2.74,6.3,3.34s7.08-1.65,7.37-1.24c.16.16-.38,1-1.76,1.87a9.22,9.22,0,0,1-6.05,1.21,7.87,7.87,0,0,1-5.07-2.91C263.56,199.45,263.45,198.5,263.67,198.39Z" style="fill:#263238"></path><path d="M296.71,195.29a2,2,0,1,1-2-1.95A2,2,0,0,1,296.71,195.29Z" style="fill:#ff9a6c"></path><path d="M296,195.29a1.24,1.24,0,1,1-1.24-1.21A1.23,1.23,0,0,1,296,195.29Z" style="fill:#C53F3F"></path><path d="M243.34,188.14a2,2,0,1,1-2-1.94A2,2,0,0,1,243.34,188.14Z" style="fill:#ff9a6c"></path><path d="M242.58,188.14a1.24,1.24,0,1,1-1.24-1.2A1.22,1.22,0,0,1,242.58,188.14Z" style="fill:#C53F3F"></path><path d="M291.23,200.64a1.21,1.21,0,1,1-1.21-1.18A1.2,1.2,0,0,1,291.23,200.64Z" style="fill:#ff9a6c"></path><path d="M290.77,200.64a.75.75,0,1,1-.75-.73A.73.73,0,0,1,290.77,200.64Z" style="fill:#C53F3F"></path><path d="M275,151.39a1.21,1.21,0,1,1-1.21-1.18A1.19,1.19,0,0,1,275,151.39Z" style="fill:#ff9a6c"></path><path d="M274.57,151.39a.75.75,0,1,1-.75-.73A.74.74,0,0,1,274.57,151.39Z" style="fill:#C53F3F"></path><rect x="160.3" y="233.25" width="74.05" height="41.97" rx="5.48" transform="translate(-60.75 446.52) rotate(-88.87)" style="fill:#fff"></rect><path d="M212.1,291.57a6.84,6.84,0,0,0,2.19-.47,5.6,5.6,0,0,0,2.13-1.63,5.47,5.47,0,0,0,1.17-3.42c.09-5.65.22-13.8.39-23.85s.4-22.07.64-35.38c0-.83,0-1.67,0-2.51a9.61,9.61,0,0,0-.11-2.47,5.25,5.25,0,0,0-3.06-3.65,6,6,0,0,0-2.47-.42l-2.66-.06-5.38-.1-22.43-.43a5.23,5.23,0,0,0-4.56,2.51,5.13,5.13,0,0,0-.76,2.56l-.06,2.81c-.08,3.74-.15,7.43-.22,11.05-.15,7.25-.29,14.24-.43,20.9s-.27,13-.4,18.9q-.09,4.44-.18,8.57a10.13,10.13,0,0,0,.07,2,5.3,5.3,0,0,0,.7,1.78,5.4,5.4,0,0,0,2.88,2.26,5.64,5.64,0,0,0,1.78.26l1.82,0,3.5.08,6.41.15,10.26.24,6.48.18,1.69.06a4.92,4.92,0,0,1,.57,0h-2.26l-6.49-.08-10.26-.15-6.41-.11-3.49-.06-1.82,0a6.24,6.24,0,0,1-1.9-.27,5.78,5.78,0,0,1-3.09-2.41,5.49,5.49,0,0,1-.75-1.91,9.7,9.7,0,0,1-.09-2.08c.05-2.74.1-5.6.15-8.56.11-5.93.23-12.25.35-18.91s.26-13.65.4-20.9c.07-3.62.14-7.31.21-11l.06-2.82a5.71,5.71,0,0,1,.83-2.81,5.77,5.77,0,0,1,5-2.77l22.43.45,5.38.11,2.66,0a6.62,6.62,0,0,1,2.66.47,5.75,5.75,0,0,1,3.34,4,10.84,10.84,0,0,1,.12,2.59c0,.84,0,1.68-.05,2.51-.29,13.31-.54,25.3-.76,35.37s-.42,18.2-.55,23.85a5.66,5.66,0,0,1-1.25,3.52,5.39,5.39,0,0,1-3.86,2Z" style="fill:#263238"></path><path d="M183.1,227.68A5.76,5.76,0,1,0,189,222,5.75,5.75,0,0,0,183.1,227.68Z" style="fill:#fafafa"></path><path d="M183.1,227.68s0-.12,0-.37a4.5,4.5,0,0,1,.14-1.05,5.65,5.65,0,0,1,2.14-3.25,6,6,0,0,1,8.42,1.33,6,6,0,0,1-3,9.13,5.94,5.94,0,0,1-5.62-1,5.74,5.74,0,0,1-2-3.33,4.1,4.1,0,0,1-.09-1.07c0-.24,0-.37,0-.37s0,.52.25,1.39a5.72,5.72,0,0,0,2.05,3.09,5.53,5.53,0,1,0,.17-8.86,5.81,5.81,0,0,0-2.17,3C183.15,227.17,183.15,227.69,183.1,227.68Z" style="fill:#263238"></path><path d="M192.66,227.87a3.81,3.81,0,1,1-3.73-3.87A3.81,3.81,0,0,1,192.66,227.87Z" style="fill:#e0e0e0"></path><path d="M182.75,245.19a5.76,5.76,0,1,0,5.87-5.64A5.76,5.76,0,0,0,182.75,245.19Z" style="fill:#fafafa"></path><path d="M182.75,245.19a1.46,1.46,0,0,1,0-.37,4.38,4.38,0,0,1,.13-1,5.76,5.76,0,0,1,2.15-3.25,5.95,5.95,0,0,1,8.41,1.33,5.95,5.95,0,0,1-.14,7.11,5.88,5.88,0,0,1-2.84,2,5.94,5.94,0,0,1-5.62-1,5.66,5.66,0,0,1-2-3.33,4.71,4.71,0,0,1-.1-1.07,1.38,1.38,0,0,1,0-.37c.06,0,0,.52.25,1.39a5.78,5.78,0,0,0,2.05,3.09,5.53,5.53,0,1,0,.18-8.86,5.7,5.7,0,0,0-2.17,3C182.8,244.68,182.81,245.2,182.75,245.19Z" style="fill:#263238"></path><path d="M192.31,245.38a3.8,3.8,0,1,1-3.73-3.87A3.81,3.81,0,0,1,192.31,245.38Z" style="fill:#e0e0e0"></path><path d="M200.73,245.55a5.76,5.76,0,1,0,5.87-5.64A5.75,5.75,0,0,0,200.73,245.55Z" style="fill:#fafafa"></path><path d="M200.73,245.55s0-.13,0-.37a4.51,4.51,0,0,1,.14-1.06,5.74,5.74,0,0,1,2.15-3.25,5.91,5.91,0,0,1,5.65-.8,6,6,0,0,1,2.62,9.24,6,6,0,0,1-8.46,1,5.74,5.74,0,0,1-2-3.33,5.19,5.19,0,0,1-.09-1.06c0-.25,0-.37,0-.37s0,.51.25,1.38A5.68,5.68,0,0,0,203,250a5.53,5.53,0,1,0,.17-8.85,5.71,5.71,0,0,0-2.16,3C200.78,245,200.78,245.55,200.73,245.55Z" style="fill:#263238"></path><path d="M210.29,245.74a3.8,3.8,0,1,1-3.73-3.88A3.79,3.79,0,0,1,210.29,245.74Z" style="fill:#e0e0e0"></path><path d="M182.41,262.7a5.76,5.76,0,1,0,5.87-5.64A5.75,5.75,0,0,0,182.41,262.7Z" style="fill:#fafafa"></path><path d="M182.41,262.71a1,1,0,0,1,0-.38,4.5,4.5,0,0,1,.14-1.05,5.68,5.68,0,0,1,2.14-3.25,6,6,0,0,1,8.42,1.33,6,6,0,0,1-3,9.13,5.94,5.94,0,0,1-5.62-1,5.74,5.74,0,0,1-2-3.33,4.1,4.1,0,0,1-.09-1.07c0-.24,0-.37,0-.36s0,.51.25,1.38a5.72,5.72,0,0,0,2.05,3.09,5.53,5.53,0,1,0,.17-8.86,5.81,5.81,0,0,0-2.17,3C182.46,262.19,182.46,262.71,182.41,262.71Z" style="fill:#263238"></path><path d="M192,262.89a3.81,3.81,0,1,1-3.73-3.87A3.81,3.81,0,0,1,192,262.89Z" style="fill:#e0e0e0"></path><path d="M200.39,263.06a5.76,5.76,0,1,0,5.87-5.64A5.75,5.75,0,0,0,200.39,263.06Z" style="fill:#fafafa"></path><path d="M200.39,263.06s0-.13,0-.37a4.51,4.51,0,0,1,.14-1.06,5.71,5.71,0,0,1,2.14-3.25,5.94,5.94,0,0,1,8.41,1.33,5.95,5.95,0,0,1-.14,7.11,5.94,5.94,0,0,1-8.45,1,5.74,5.74,0,0,1-2-3.33,4.06,4.06,0,0,1-.09-1.06c0-.25,0-.37,0-.37s0,.51.25,1.38a5.71,5.71,0,0,0,2,3.09,5.53,5.53,0,1,0,.18-8.85,5.79,5.79,0,0,0-2.17,3C200.43,262.55,200.44,263.06,200.39,263.06Z" style="fill:#263238"></path><path d="M210,263.25a3.81,3.81,0,1,1-3.73-3.88A3.8,3.8,0,0,1,210,263.25Z" style="fill:#e0e0e0"></path><path d="M182.06,280.22a5.76,5.76,0,1,0,5.87-5.65A5.78,5.78,0,0,0,182.06,280.22Z" style="fill:#fafafa"></path><path d="M182.06,280.22a1.67,1.67,0,0,1,0-.38,4.38,4.38,0,0,1,.13-1,5.76,5.76,0,0,1,2.15-3.25,5.95,5.95,0,0,1,8.41,1.33,5.95,5.95,0,0,1-.14,7.11,5.88,5.88,0,0,1-2.84,2,5.94,5.94,0,0,1-5.62-1,5.66,5.66,0,0,1-2-3.33,4.71,4.71,0,0,1-.1-1.07,1.17,1.17,0,0,1,0-.36c.06,0,0,.51.25,1.38a5.84,5.84,0,0,0,2.05,3.09,5.53,5.53,0,1,0,.18-8.86,5.7,5.7,0,0,0-2.17,3C182.11,279.7,182.12,280.22,182.06,280.22Z" style="fill:#263238"></path><path d="M191.62,280.4a3.8,3.8,0,1,1-3.72-3.87A3.8,3.8,0,0,1,191.62,280.4Z" style="fill:#e0e0e0"></path><path d="M200,280.57a5.76,5.76,0,1,0,5.87-5.64A5.76,5.76,0,0,0,200,280.57Z" style="fill:#fafafa"></path><path d="M200,280.57s0-.13,0-.37a4,4,0,0,1,.13-1.06,5.74,5.74,0,0,1,2.15-3.25,5.95,5.95,0,0,1,8.41,1.33,6,6,0,0,1-.14,7.11,6,6,0,0,1-8.46,1,5.66,5.66,0,0,1-2-3.33,4.68,4.68,0,0,1-.1-1.06c0-.25,0-.37,0-.37s0,.51.25,1.39a5.75,5.75,0,0,0,2.05,3.09,5.53,5.53,0,1,0,.17-8.86,5.71,5.71,0,0,0-2.16,3C200.09,280.06,200.1,280.57,200,280.57Z" style="fill:#263238"></path><path d="M209.6,280.76a3.8,3.8,0,1,1-3.73-3.88A3.79,3.79,0,0,1,209.6,280.76Z" style="fill:#e0e0e0"></path><path d="M193.14,272l-5.39-11-9.1-8.27s-3.4-3.37-5.21-4-19.27,4.87-19.27,4.87a7.4,7.4,0,0,0-6.59,4.31,8.57,8.57,0,0,0-3,11l.42,8.41,2.8,29-2.2,13.78s11.37-6.56,16.84-9.54,9.05-12.46,9.05-12.46c5.67-4.35,7.66-15.55,7.66-15.55a6.48,6.48,0,0,0,2.85-6.77c2-1.29,1.59-5.28,1.59-5.28a8.66,8.66,0,0,0,8.71,3.22A1.18,1.18,0,0,0,193.14,272Z" style="fill:#ffbf9d"></path><path d="M153.67,270.72a4.22,4.22,0,0,1,.84-.05l2.4-.11c2.08-.1,5.08-.37,8.79-.8l1.42-.17a6.47,6.47,0,0,1,1.54-.06A4.61,4.61,0,0,1,171.6,271l4.48,5.4c.39.48.79,1,1.17,1.48a4.27,4.27,0,0,1,.29.41,1.36,1.36,0,0,1,.14.27l.07.25a5.49,5.49,0,0,1,.16,1,8.07,8.07,0,0,1-.92,4,31.29,31.29,0,0,1-2.11,3.55,6.07,6.07,0,0,1-1.45,1.65,2.32,2.32,0,0,1-2.32.25,2.57,2.57,0,0,1-1.27-1.39,3.76,3.76,0,0,1-.2-1.81,8.61,8.61,0,0,1,1.29-3.14l.08.4a18.77,18.77,0,0,1-4.52-4.69l.42.08a6.87,6.87,0,0,1-6.35.7l.3-.44a2.81,2.81,0,0,1-1.81,4.74l.06-.48a11.07,11.07,0,0,1,5.38,3.94,10.66,10.66,0,0,1,1.94,4.7,10.48,10.48,0,0,1,0,3.24c-.07.37-.13.64-.18.83s-.08.27-.1.27a12.91,12.91,0,0,0,0-4.29,10.59,10.59,0,0,0-2-4.51,10.7,10.7,0,0,0-5.22-3.71l-1.14-.37,1.2-.11a2.38,2.38,0,0,0,1.92-1.41,2.34,2.34,0,0,0-.47-2.46l-.88-.91,1.18.46a6.32,6.32,0,0,0,5.81-.68l.25-.16.16.24a18.47,18.47,0,0,0,4.39,4.53l.23.16-.14.24a8,8,0,0,0-1.21,2.91,2.37,2.37,0,0,0,1.12,2.55,1.66,1.66,0,0,0,1.7-.19,5.44,5.44,0,0,0,1.29-1.48,30.73,30.73,0,0,0,2.08-3.48,7.44,7.44,0,0,0,.88-3.65,4.48,4.48,0,0,0-.15-.89l0-.22a.7.7,0,0,0-.08-.14,2.86,2.86,0,0,0-.26-.38c-.36-.49-.76-1-1.14-1.46-1.56-1.9-3-3.71-4.42-5.41a4.2,4.2,0,0,0-2.61-1.34,7,7,0,0,0-1.44.05l-1.43.14c-3.71.38-6.73.59-8.82.62-1,0-1.86,0-2.41,0A4,4,0,0,1,153.67,270.72Z" style="fill:#ff9a6c"></path><path d="M181.81,276.57a21.55,21.55,0,0,1-1.73-4.39,26,26,0,0,0-2-4.63,9.63,9.63,0,0,0-4.32-4.11,13.25,13.25,0,0,0-6-.56l-5.1.33c-1.45.08-2.63.14-3.44.17a4.64,4.64,0,0,1-1.27,0,5.53,5.53,0,0,1,1.25-.21c.81-.1,2-.23,3.43-.37l5.09-.46a13.43,13.43,0,0,1,6.32.56,10,10,0,0,1,4.57,4.39,23.18,23.18,0,0,1,1.92,4.79c.38,1.29.71,2.39,1,3.3A6.87,6.87,0,0,1,181.81,276.57Z" style="fill:#ff9a6c"></path><path d="M183.66,271.73c-.11,0-.38-2.12-1.54-5.36a32.4,32.4,0,0,0-2.56-5.44,23.86,23.86,0,0,0-2-2.92,4.72,4.72,0,0,0-3-1.83,21.82,21.82,0,0,0-3.79-.08c-1.23,0-2.43.08-3.57.15-2.27.14-4.32.33-6,.52s-3.1.38-4.06.5a6.41,6.41,0,0,1-1.5.14,7,7,0,0,1,1.46-.38c.95-.19,2.33-.45,4-.7s3.77-.48,6.05-.65c1.15-.09,2.35-.15,3.6-.19a22.31,22.31,0,0,1,3.9.07,4.91,4.91,0,0,1,1.93.72,6.53,6.53,0,0,1,1.47,1.34,24,24,0,0,1,2,3,29.93,29.93,0,0,1,2.48,5.59,27.34,27.34,0,0,1,1,4A5.87,5.87,0,0,1,183.66,271.73Z" style="fill:#ff9a6c"></path><path d="M147.77,306.27s-8.73,53.7-10.15,69c-1.84,19.85-5.27,33.39.3,46.92,4.81,11.69,17.52,19.74,29.16,14.82s15.71-37.73,15.71-37.73l-14.07-95.62Z" style="fill:#ffbf9d"></path><path d="M177.61,396.86s0-.08,0-.24.08-.42.14-.7c.12-.61.39-1.5.57-2.68a54.54,54.54,0,0,0,1-10,99.63,99.63,0,0,0-1.19-14.87c-.79-5.57-1.89-11.66-2.83-18.1-1.93-12.86-3.83-24.47-5-32.92-.59-4.22-1-7.64-1.27-10-.12-1.15-.21-2.06-.28-2.73,0-.29,0-.52-.06-.71a.81.81,0,0,1,0-.25,1.17,1.17,0,0,1,.05.24c0,.19.07.42.11.71.09.66.22,1.57.38,2.71.32,2.36.8,5.78,1.43,10,1.25,8.42,3.22,20,5.14,32.89.94,6.43,2,12.53,2.8,18.12a95.18,95.18,0,0,1,1.08,14.94,51.42,51.42,0,0,1-1.15,10c-.21,1.18-.52,2.06-.67,2.67l-.19.69C177.65,396.79,177.62,396.87,177.61,396.86Z" style="fill:#ff9a6c"></path><path d="M352.13,247.13s32.76,65.55,40.82,86.5,5.32,33.4.6,39.71-27.32-1.72-28.3-2.25c-4.3-2.35-13.2-21.07-13.2-21.07l-22-97.09Z" style="fill:#ffbf9d"></path><path d="M354.52,351.12a1.47,1.47,0,0,1-.11-.24l-.27-.71c-.24-.68-.58-1.61-1-2.78-.89-2.41-2-5.95-3.35-10.33-2.67-8.77-5.92-21-9.17-34.61s-5.93-26-7.78-35c-.93-4.49-1.65-8.12-2.13-10.64l-.54-2.9c-.05-.31-.09-.56-.12-.76a.86.86,0,0,1,0-.26.76.76,0,0,1,.08.25c0,.2.1.44.17.75.16.7.37,1.66.64,2.88l2.29,10.61c1.94,8.95,4.67,21.31,7.93,34.91s6.43,25.84,9,34.63c1.31,4.39,2.36,7.94,3.19,10.36.39,1.19.69,2.13.91,2.81l.22.73A.88.88,0,0,1,354.52,351.12Z" style="fill:#ff9a6c"></path><path d="M311.08,201.24s-1.49.72-1.06,3.19,5,11.35,5.36,13.23,1.36,14.86,3.07,18.34,2.54-3.75,2.54-3.75l6.66-11.64,1.35-3.43s-3,2.29-5.36-2.61c-1.21-2.57-2.75-7.73-5.16-11.11S313.45,199.59,311.08,201.24Z" style="fill:#ffbf9d"></path><path d="M323.41,204.83a10.07,10.07,0,0,1-2.2-.2,28.32,28.32,0,0,1-5.24-1.11,17.9,17.9,0,0,1-4.84-2.33A4.44,4.44,0,0,1,310,200a1.1,1.1,0,0,1-.21-.58,6,6,0,0,0,1.57,1.47,23.14,23.14,0,0,0,4.79,2.14,45.16,45.16,0,0,0,5.14,1.24A8.54,8.54,0,0,1,323.41,204.83Z" style="fill:#ff9a6c"></path><path d="M306,195.42a5.16,5.16,0,1,0,5.16-5.16A5.16,5.16,0,0,0,306,195.42Z" style="fill:#fafafa"></path><path d="M306,195.42s0-.11,0-.33a3.71,3.71,0,0,1,.1-1,5.12,5.12,0,0,1,1.86-3,5.34,5.34,0,0,1,5.08-.82,5.27,5.27,0,0,1,2.52,1.87,5.36,5.36,0,0,1,0,6.4,5.27,5.27,0,0,1-2.52,1.87,5.34,5.34,0,0,1-5.08-.82,5.12,5.12,0,0,1-1.86-3,3.71,3.71,0,0,1-.1-.95c0-.22,0-.33,0-.33s0,.46.26,1.23a5,5,0,0,0,1.89,2.72,4.93,4.93,0,1,0,0-7.9,5.06,5.06,0,0,0-1.89,2.71C306,195,306,195.42,306,195.42Z" style="fill:#263238"></path><path d="M314.52,195.42a3.41,3.41,0,1,1-3.41-3.41A3.41,3.41,0,0,1,314.52,195.42Z" style="fill:#e0e0e0"></path><path d="M307.91,198.9a3,3,0,0,1,2.18-2.42c1.87-.39,19.56,1.4,21.59,1.72s6.78.7,6.78.7,6.39-.94,8.57,5.3l2,4.6s5.69.31,5.92,5.69.7,8.49.7,8.49,6.74,2.07,6.42,5.57S359,238.1,359,238.1l-5.26,9.63a15.48,15.48,0,0,1-14.5,8.67h-6S319,240.55,318,233.52s8-11.3,8-11.3l8-8.17.18-7s-17.05-1.95-20.64-3.44S307.71,201.21,307.91,198.9Z" style="fill:#ffbf9d"></path><path d="M351.2,231.22a11,11,0,0,0,.58,6.59" style="fill:#ffbf9d"></path><path d="M351.78,237.81a5.68,5.68,0,0,1-1.06-3.23,5.78,5.78,0,0,1,.48-3.36c.15,0-.13,1.51,0,3.32S351.92,237.75,351.78,237.81Z" style="fill:#ff9a6c"></path><path d="M338.19,198.88s-10.52,1.23-13.42,2.69c-.29.15-7.23,8.17-7.23,8.17a4.32,4.32,0,0,0,5.65,2.35c4.21-1.38,5.26-4.14,5.26-4.14l9.74-.35,2.27,4.49" style="fill:#ffbf9d"></path><path d="M340.46,212.09a7.14,7.14,0,0,1-.67-1.14l-1.73-3.28.14.09-9.75.42.21-.15a8.18,8.18,0,0,1-4.18,3.83,7.84,7.84,0,0,1-3,.79,4.25,4.25,0,0,1-3-1.17,4.84,4.84,0,0,1-1.15-1.64l-.06-.14.1-.13c2.26-2.6,4.41-5.06,6.4-7.25.25-.28.49-.54.76-.82s.36-.19.53-.29a5.27,5.27,0,0,1,.51-.19,17.85,17.85,0,0,1,2-.56c1.29-.3,2.49-.53,3.58-.71,2.19-.37,4-.59,5.2-.73.61-.07,1.09-.11,1.41-.13a1.41,1.41,0,0,1,.49,0,2.41,2.41,0,0,1-.48.11l-1.4.23c-1.21.19-3,.47-5.16.88-1.08.2-2.27.45-3.53.77a15.65,15.65,0,0,0-1.93.57,4.78,4.78,0,0,0-.48.19c-.13.07-.37.13-.4.21-.23.24-.48.52-.72.79-2,2.21-4.1,4.68-6.35,7.28l0-.26a4.55,4.55,0,0,0,1,1.45,3.66,3.66,0,0,0,2.66,1,7.4,7.4,0,0,0,2.8-.73,7.89,7.89,0,0,0,4-3.53l.07-.15h.14l9.75-.27h.1l0,.09c.67,1.38,1.2,2.5,1.61,3.34A9.78,9.78,0,0,1,340.46,212.09Z" style="fill:#ff9a6c"></path><path d="M349.36,209.19l-12.57-.7a5.45,5.45,0,0,0-4,1.48l-6.79,6.4a3.48,3.48,0,0,0,4.42,2.9,20.52,20.52,0,0,0,7.28-3.52s6.73,1.38,6.94,1.38a35.21,35.21,0,0,1,1.45,4.35" style="fill:#ffbf9d"></path><path d="M346.05,221.48a4.77,4.77,0,0,1-.3-.78c-.19-.58-.44-1.32-.75-2.24-.08-.24-.18-.49-.27-.75s-.11-.26-.16-.38-.05-.08,0-.06a0,0,0,0,0,.06,0h-.06l-.22,0-2-.37-4.73-.9.18,0a21.23,21.23,0,0,1-5.88,3.18,11.45,11.45,0,0,1-1.79.46,3.92,3.92,0,0,1-1.95-.09,3.32,3.32,0,0,1-1.66-1.17,4.72,4.72,0,0,1-.82-1.89l0-.13.1-.1L326,216l3.83-3.6,1.82-1.71a13.56,13.56,0,0,1,1.86-1.59,5.6,5.6,0,0,1,2.22-.79,11.33,11.33,0,0,1,2.19,0l3.86.24,5.57.4,1.52.13a2.22,2.22,0,0,1,.52.08,1.66,1.66,0,0,1-.53,0l-1.52,0-5.58-.23-3.86-.18a11.34,11.34,0,0,0-2.1,0,5.43,5.43,0,0,0-2,.75,13.66,13.66,0,0,0-1.76,1.54l-1.82,1.72-3.82,3.61-.19.18.08-.23a3.3,3.3,0,0,0,2.11,2.65,5.8,5.8,0,0,0,3.43-.35,21.29,21.29,0,0,0,5.77-3l.08-.06.1,0,4.67,1,1.94.41.22.05h.06a.34.34,0,0,1,.14.08c.07.08.05.09.08.14s.12.28.17.41l.25.77c.3,1,.51,1.75.64,2.28A4.35,4.35,0,0,1,346.05,221.48Z" style="fill:#ff9a6c"></path><path d="M359.08,224.55s-6.27-3.14-7.3-3.07-12,4.06-12,4.06,2.18,4.43,5.35,4a30.2,30.2,0,0,0,5.79-1.38l4.5,4.41" style="fill:#ffbf9d"></path><path d="M355.44,232.59a8.89,8.89,0,0,1-1.28-1.1l-3.35-3.18.2,0a29.08,29.08,0,0,1-5.77,1.44,3.76,3.76,0,0,1-1.78-.2,5.65,5.65,0,0,1-1.58-.94,10.28,10.28,0,0,1-2.31-3l-.14-.25.28-.11.58-.21c2.6-.94,5.08-1.81,7.34-2.57,1.14-.38,2.22-.74,3.25-1a6.09,6.09,0,0,1,.79-.19,1.91,1.91,0,0,1,.82.13,13.15,13.15,0,0,1,1.35.51c1.67.71,3,1.38,3.87,1.84a9.42,9.42,0,0,1,1.37.78,7.7,7.7,0,0,1-1.46-.6c-.92-.4-2.25-1-3.92-1.68-.42-.16-.86-.33-1.32-.47a1.8,1.8,0,0,0-.66-.1c-.21,0-.48.12-.72.19-1,.31-2.08.68-3.21,1.07l-7.32,2.61-.58.21.15-.36a10.1,10.1,0,0,0,2.17,2.84,5.28,5.28,0,0,0,1.42.87,3.43,3.43,0,0,0,1.55.18,30.35,30.35,0,0,0,5.69-1.31l.12,0,.08.08,3.24,3.3A11.84,11.84,0,0,1,355.44,232.59Z" style="fill:#ff9a6c"></path><path d="M328.89,221.37s-.26-.05-.64.11a2.73,2.73,0,0,0-1.16,1.31,59.34,59.34,0,0,0-2.25,5.74,60.29,60.29,0,0,0-1.62,5.95,18.15,18.15,0,0,1-.59,2.5,9.82,9.82,0,0,1,.23-2.57,39,39,0,0,1,1.49-6,37.85,37.85,0,0,1,2.42-5.75,2.74,2.74,0,0,1,1.41-1.33C328.66,221.17,328.91,221.36,328.89,221.37Z" style="fill:#ff9a6c"></path><path d="M321.38,205.33a11.31,11.31,0,0,1-2.15-.28c-1.32-.22-3.15-.5-5.15-1a12.43,12.43,0,0,1-4.82-2.15,4,4,0,0,1-1.41-1.67c.07-.06.55.63,1.63,1.38a14,14,0,0,0,4.73,1.93c2,.47,3.79.81,5.09,1.13A7.3,7.3,0,0,1,321.38,205.33Z" style="fill:#ff9a6c"></path></g></svg>
