<svg xmlns="http://www.w3.org/2000/svg" viewBox="0 0 500 500"><g id="freepik--background-complete--inject-41"><polygon points="192.29 438.88 192.43 438.88 192.29 438.49 192.29 438.88" style="fill:#e0e0e0"></polygon><polygon points="475.66 446.34 472.22 438.26 192.43 438.88 195.01 446.34 475.66 446.34" style="fill:#e0e0e0"></polygon><path d="M171.49,463.53l10.2-46.72a4.93,4.93,0,0,0-4.82-6H66.68A4.93,4.93,0,0,0,62,414.12L46.62,457.93a4.92,4.92,0,0,0,4.52,6.56l115.41,2.91A4.93,4.93,0,0,0,171.49,463.53Z" style="fill:#e0e0e0"></path><path d="M168.05,439c3.9-1.75,7.87,1.45,9.58,4.74,2.1,4,2.21,8.77,3.19,13.13a21.22,21.22,0,0,0,5.82,10.74,28,28,0,0,0,10.14,6.18,54.4,54.4,0,0,0,13.9,2.69,130.34,130.34,0,0,0,13.69.56c8.57-.16,18.08-1.53,25.26-6.62,3.1-2.2,5.75-6.18,3.79-10-1.64-3.23-5.75-4.06-9-3.91-4.07.19-8.34,1.41-10.82,4.86s-1.63,7.55.9,10.62,6.37,5,10.11,6.3a31.82,31.82,0,0,0,12.37,1.53,30,30,0,0,0,17.83-7.38c9.47-8.57,11.72-22.34,11.32-34.5-.07-2.33-.25-4.65-.49-7-.17-1.58-2.67-1.6-2.5,0,1.28,12.16.9,26.36-7,36.43s-22.55,12.71-33.86,7.25c-3.14-1.52-6.82-3.95-7.57-7.63-.86-4.25,3.34-6.93,6.92-7.66,2.81-.58,7.46-.92,9.39,1.77,1.15,1.61.56,3.78-.55,5.24a14.07,14.07,0,0,1-4.9,3.62c-7.34,3.82-15.79,4.67-23.93,4.58-4.16-.05-8.34-.3-12.48-.72a46.11,46.11,0,0,1-12.85-2.91,24.08,24.08,0,0,1-8.87-6.17c-2.71-3.06-3.87-6.77-4.57-10.73-1.22-6.9-2.63-16.49-11.13-17.85a8.36,8.36,0,0,0-4.88.67c-1.47.65-.2,2.81,1.26,2.16Z" style="fill:#e0e0e0"></path><polygon points="71.54 8.29 46.34 387.19 291.4 387.19 90.1 8.29 71.54 8.29" style="fill:#fafafa"></polygon><polygon points="438.4 8.29 463.61 387.19 218.54 387.19 419.85 8.29 438.4 8.29" style="fill:#f5f5f5"></polygon><path d="M410.51,142.5a5,5,0,1,1-2.86-6.4A5,5,0,0,1,410.51,142.5Z" style="fill:#e0e0e0"></path><path d="M410.43,140.7c-.46.14-2.15-4.85-2.91-11.21s-1.16-11.42-.73-11.51,1.7,5,2.44,11.29S410.88,140.57,410.43,140.7Z" style="fill:#e0e0e0"></path><path d="M422.81,119.1c.22.34-3.23,2.63-8.25,2.73a11.71,11.71,0,0,1-6.13-1.46c-1.44-.86-1.92-1.87-1.75-2s.91.42,2.28.89a15.91,15.91,0,0,0,5.58.84C419,120.05,422.6,118.6,422.81,119.1Z" style="fill:#e0e0e0"></path><path d="M426.52,143.62a5,5,0,1,1-2.85-6.4A4.94,4.94,0,0,1,426.52,143.62Z" style="fill:#e0e0e0"></path><path d="M426.44,141.82c-.45.14-2.14-4.85-2.9-11.21s-1.17-11.42-.73-11.51,1.69,5,2.43,11.29S426.9,141.69,426.44,141.82Z" style="fill:#e0e0e0"></path><path d="M423.37,122.44c.28.35-2.87,2.75-7.56,3s-8.1-1.73-7.86-2.11,3.54.67,7.76.39S423.13,122,423.37,122.44Z" style="fill:#e0e0e0"></path><path d="M86.61,135.32a4.42,4.42,0,1,1-2.55-5.71A4.42,4.42,0,0,1,86.61,135.32Z" style="fill:#e0e0e0"></path><path d="M86.54,133.72c-.41.12-1.91-4.33-2.6-10s-1-10.18-.64-10.27,1.51,4.46,2.17,10.07S86.94,133.6,86.54,133.72Z" style="fill:#e0e0e0"></path><path d="M97.58,114.45c.19.31-2.88,2.35-7.35,2.43a10.42,10.42,0,0,1-5.48-1.3c-1.28-.76-1.71-1.66-1.56-1.77s.82.38,2,.8a14.25,14.25,0,0,0,5,.74C94.22,115.3,97.4,114,97.58,114.45Z" style="fill:#e0e0e0"></path><path d="M100.9,136.32a4.42,4.42,0,1,1-2.55-5.71A4.43,4.43,0,0,1,100.9,136.32Z" style="fill:#e0e0e0"></path><path d="M100.82,134.72c-.41.12-1.91-4.33-2.59-10s-1-10.18-.65-10.27,1.51,4.45,2.17,10.07S101.23,134.6,100.82,134.72Z" style="fill:#e0e0e0"></path><path d="M98.08,117.43c.26.31-2.55,2.46-6.74,2.68s-7.23-1.54-7-1.88,3.17.6,6.93.35S97.87,117,98.08,117.43Z" style="fill:#e0e0e0"></path><path d="M126.58,85.35A2.81,2.81,0,1,1,125,81.72,2.8,2.8,0,0,1,126.58,85.35Z" style="fill:#e0e0e0"></path><path d="M126.53,84.33c-.26.08-1.21-2.74-1.64-6.35s-.66-6.47-.42-6.53,1,2.83,1.38,6.4S126.79,84.26,126.53,84.33Z" style="fill:#e0e0e0"></path><path d="M133.55,72.09c.13.19-1.83,1.49-4.67,1.54a6.58,6.58,0,0,1-3.48-.82c-.82-.49-1.09-1.06-1-1.13s.52.24,1.29.51a9,9,0,0,0,3.17.47C131.42,72.62,133.44,71.8,133.55,72.09Z" style="fill:#e0e0e0"></path><path d="M135.66,86A2.81,2.81,0,1,1,134,82.36,2.81,2.81,0,0,1,135.66,86Z" style="fill:#e0e0e0"></path><path d="M135.62,85c-.26.08-1.22-2.75-1.65-6.35s-.66-6.48-.42-6.53,1,2.83,1.38,6.4S135.87,84.9,135.62,85Z" style="fill:#e0e0e0"></path><path d="M133.87,74c.16.2-1.62,1.56-4.28,1.71s-4.6-1-4.46-1.2,2,.38,4.4.22S133.74,73.73,133.87,74Z" style="fill:#e0e0e0"></path><path d="M460.36,81.87a2.81,2.81,0,1,1-1.62-3.63A2.81,2.81,0,0,1,460.36,81.87Z" style="fill:#e0e0e0"></path><path d="M460.31,80.85c-.26.08-1.21-2.75-1.64-6.35S458,68,458.25,68s1,2.83,1.38,6.4S460.57,80.78,460.31,80.85Z" style="fill:#e0e0e0"></path><path d="M467.33,68.61c.13.19-1.83,1.49-4.67,1.54a6.58,6.58,0,0,1-3.48-.83c-.82-.48-1.09-1.06-1-1.12s.52.24,1.29.5a9,9,0,0,0,3.17.48C465.2,69.14,467.22,68.32,467.33,68.61Z" style="fill:#e0e0e0"></path><path d="M469.44,82.51a2.81,2.81,0,1,1-1.62-3.63A2.81,2.81,0,0,1,469.44,82.51Z" style="fill:#e0e0e0"></path><path d="M469.39,81.49c-.25.07-1.21-2.75-1.64-6.36s-.66-6.47-.42-6.52,1,2.83,1.38,6.4S469.65,81.41,469.39,81.49Z" style="fill:#e0e0e0"></path><path d="M467.65,70.5c.16.2-1.62,1.56-4.28,1.7s-4.6-1-4.46-1.19,2,.38,4.4.22S467.52,70.25,467.65,70.5Z" style="fill:#e0e0e0"></path><path d="M472.32,199.76a2.81,2.81,0,1,1-1.62-3.63A2.82,2.82,0,0,1,472.32,199.76Z" style="fill:#e0e0e0"></path><path d="M472.27,198.74c-.26.08-1.21-2.75-1.65-6.35s-.66-6.48-.41-6.53,1,2.83,1.38,6.4S472.53,198.67,472.27,198.74Z" style="fill:#e0e0e0"></path><path d="M479.29,186.5c.12.19-1.83,1.49-4.67,1.54a6.58,6.58,0,0,1-3.48-.83c-.82-.48-1.09-1.06-1-1.12s.52.24,1.3.5a8.72,8.72,0,0,0,3.17.47C477.16,187,479.18,186.21,479.29,186.5Z" style="fill:#e0e0e0"></path><path d="M481.4,200.4a2.81,2.81,0,1,1-1.62-3.63A2.81,2.81,0,0,1,481.4,200.4Z" style="fill:#e0e0e0"></path><path d="M481.35,199.38c-.26.07-1.21-2.75-1.65-6.36s-.65-6.47-.41-6.52,1,2.82,1.38,6.4S481.61,199.3,481.35,199.38Z" style="fill:#e0e0e0"></path><path d="M479.61,188.39c.16.2-1.62,1.56-4.29,1.7s-4.59-1-4.45-1.19,2,.38,4.4.22S479.47,188.14,479.61,188.39Z" style="fill:#e0e0e0"></path><path d="M56.63,87.91a5.28,5.28,0,1,1-3.35-6.68A5.29,5.29,0,0,1,56.63,87.91Z" style="fill:#e0e0e0"></path><path d="M56.46,86c-.31.1-2.19-5.14-3.31-11.85S51.2,62.07,51.48,62s1.72,5.28,2.81,12S56.76,85.9,56.46,86Z" style="fill:#e0e0e0"></path><path d="M62.56,59.53c.24.18-1.69,2.44-5.11,3.31s-6.2-.14-6.07-.42,2.7.12,5.78-.71S62.33,59.27,62.56,59.53Z" style="fill:#e0e0e0"></path><path d="M63.17,65c.27.16-1.56,2.5-5,3.1S52.28,67.2,52.47,67s2.55.57,5.53,0S62.94,64.72,63.17,65Z" style="fill:#e0e0e0"></path><path d="M361.34,82.75A4.55,4.55,0,1,1,358.45,77,4.55,4.55,0,0,1,361.34,82.75Z" style="fill:#e0e0e0"></path><path d="M361.19,81.11c-.27.09-1.89-4.42-2.85-10.19s-1.67-10.4-1.43-10.46,1.47,4.54,2.41,10.28S361.45,81,361.19,81.11Z" style="fill:#e0e0e0"></path><path d="M366.43,58.33c.21.16-1.45,2.11-4.39,2.85s-5.33-.11-5.22-.35,2.32.1,5-.61S366.24,58.11,366.43,58.33Z" style="fill:#e0e0e0"></path><path d="M367,63c.23.14-1.34,2.14-4.26,2.67s-5.11-.76-4.94-1,2.19.49,4.75,0S366.76,62.8,367,63Z" style="fill:#e0e0e0"></path><path d="M28.16,207.44a5.28,5.28,0,1,1-3.35-6.67A5.28,5.28,0,0,1,28.16,207.44Z" style="fill:#e0e0e0"></path><path d="M28,205.53c-.31.11-2.19-5.13-3.31-11.84S22.73,181.6,23,181.53s1.72,5.28,2.81,11.95S28.29,205.43,28,205.53Z" style="fill:#e0e0e0"></path><path d="M34.09,179.06c.24.18-1.69,2.45-5.11,3.31s-6.2-.14-6.07-.41,2.7.11,5.78-.71S33.86,178.8,34.09,179.06Z" style="fill:#e0e0e0"></path><path d="M34.7,184.51c.27.16-1.56,2.49-5,3.1s-5.93-.88-5.74-1.12,2.55.56,5.53,0S34.47,184.25,34.7,184.51Z" style="fill:#e0e0e0"></path><path d="M207.12,54.75a3.7,3.7,0,1,1-2.34-4.67A3.7,3.7,0,0,1,207.12,54.75Z" style="fill:#e0e0e0"></path><path d="M207,53.41c-.22.08-1.53-3.59-2.32-8.29s-1.36-8.45-1.16-8.5,1.2,3.69,2,8.36S207.21,53.34,207,53.41Z" style="fill:#e0e0e0"></path><path d="M211.27,34.89c.17.13-1.19,1.71-3.58,2.32s-4.33-.1-4.25-.29,1.9.08,4.05-.5S211.11,34.71,211.27,34.89Z" style="fill:#e0e0e0"></path><path d="M211.7,38.7c.18.11-1.1,1.75-3.47,2.17s-4.16-.61-4-.78,1.78.39,3.87,0S211.54,38.52,211.7,38.7Z" style="fill:#e0e0e0"></path></g><g id="freepik--Table--inject-41"><path d="M9.81,387.19c0-.14,107.34-.26,239.73-.26s239.76.12,239.76.26-107.33.26-239.76.26S9.81,387.33,9.81,387.19Z" style="fill:#263238"></path></g><g id="freepik--musical-notes--inject-41"><path d="M295.15,63.1a5,5,0,1,1-2.85-6.4A5,5,0,0,1,295.15,63.1Z" style="fill:#263238"></path><path d="M295.07,61.3c-.46.14-2.14-4.85-2.91-11.2s-1.16-11.42-.72-11.52,1.69,5,2.43,11.29S295.53,61.17,295.07,61.3Z" style="fill:#263238"></path><path d="M307.45,39.7c.22.34-3.23,2.63-8.24,2.73A11.66,11.66,0,0,1,293.07,41c-1.44-.86-1.92-1.87-1.75-2s.92.43,2.29.9a15.86,15.86,0,0,0,5.58.83C303.69,40.65,307.25,39.2,307.45,39.7Z" style="fill:#263238"></path><path d="M311.17,64.22a5,5,0,1,1-2.86-6.4A5,5,0,0,1,311.17,64.22Z" style="fill:#263238"></path><path d="M311.09,62.42c-.46.14-2.15-4.85-2.91-11.2S307,39.8,307.45,39.7s1.7,5,2.44,11.29S311.54,62.29,311.09,62.42Z" style="fill:#263238"></path><path d="M308,43c.28.35-2.87,2.76-7.57,3s-8.1-1.73-7.86-2.11,3.55.67,7.76.39S307.77,42.6,308,43Z" style="fill:#263238"></path><path d="M173.23,112.44a5.28,5.28,0,1,1-2.43-7.06A5.28,5.28,0,0,1,173.23,112.44Z" style="fill:#263238"></path><path d="M173.31,110.52c-.32.07-1.49-5.37-1.7-12.18s-.32-12.23,0-12.27,1,5.46,1.2,12.22S173.63,110.46,173.31,110.52Z" style="fill:#263238"></path><path d="M182.88,85.1c.22.21-2,2.2-5.5,2.6s-6.13-1-6-1.22,2.67.48,5.83.07S182.69,84.81,182.88,85.1Z" style="fill:#263238"></path><path d="M182.76,90.58c.25.19-1.88,2.26-5.32,2.41s-5.77-1.65-5.54-1.87,2.45.9,5.48.71S182.57,90.3,182.76,90.58Z" style="fill:#263238"></path><path d="M335,135.6a5.27,5.27,0,1,1-5.57-5A5.27,5.27,0,0,1,335,135.6Z" style="fill:#263238"></path><path d="M334.09,133.89c-.24.21-3.91-4-7.42-9.78s-6.24-10.51-6-10.68,3.53,4.27,7,10.07S334.34,133.68,334.09,133.89Z" style="fill:#263238"></path><path d="M330,107.07c.3.08-.67,2.89-3.52,5s-5.8,2.15-5.79,1.85,2.55-.89,5.11-2.78S329.73,106.91,330,107.07Z" style="fill:#263238"></path><path d="M332.6,111.9c.31,0-.53,2.89-3.46,4.7s-5.83,1.37-5.74,1.07,2.57-.41,5.12-2S332.3,111.75,332.6,111.9Z" style="fill:#263238"></path></g><g id="freepik--Speakers--inject-41"><rect x="47.59" y="159.32" width="111.76" height="157.7" rx="6.51" style="fill:#455a64"></rect><g style="opacity:0.4"><circle cx="103.47" cy="270.81" r="36.47" transform="translate(-161.19 152.48) rotate(-45)"></circle></g><path d="M103.47,313.05a42.25,42.25,0,1,1,42.24-42.24A42.29,42.29,0,0,1,103.47,313.05Zm0-82.49a40.25,40.25,0,1,0,40.24,40.25A40.3,40.3,0,0,0,103.47,230.56Z" style="fill:#C53F3F"></path><circle cx="103.47" cy="270.81" r="7.29" transform="translate(-167.59 168) rotate(-48.32)" style="fill:#455a64"></circle><g style="opacity:0.2"><path d="M69.56,276.42,94,271.56s-.49-9.17,9.44-9.61l15.79-22.22S97.21,228.28,79,246.15C66.36,258.5,69.56,276.42,69.56,276.42Z" style="fill:#fff"></path></g><g style="opacity:0.4"><circle cx="104.72" cy="194.03" r="21.03" transform="translate(-106.53 130.88) rotate(-45)"></circle></g><path d="M104.72,218.81A24.78,24.78,0,1,1,129.5,194,24.81,24.81,0,0,1,104.72,218.81Zm0-47.56A22.78,22.78,0,1,0,127.5,194,22.81,22.81,0,0,0,104.72,171.25Z" style="fill:#C53F3F"></path><path d="M108.92,194a4.2,4.2,0,1,1-4.2-4.2A4.2,4.2,0,0,1,108.92,194Z" style="fill:#455a64"></path><g style="opacity:0.2"><path d="M85.17,197.26l14.11-2.8a5.28,5.28,0,0,1,5.45-5.54l9.1-12.81s-12.72-6.6-23.24,3.71C83.33,186.93,85.17,197.26,85.17,197.26Z" style="fill:#fff"></path></g><rect x="345.04" y="159.32" width="111.76" height="157.7" rx="6.51" style="fill:#455a64"></rect><g style="opacity:0.4"><circle cx="400.92" cy="270.81" r="36.47" transform="translate(55.45 609.52) rotate(-78.47)"></circle></g><path d="M400.92,313.05a42.25,42.25,0,1,1,42.25-42.24A42.29,42.29,0,0,1,400.92,313.05Zm0-82.49a40.25,40.25,0,1,0,40.25,40.25A40.29,40.29,0,0,0,400.92,230.56Z" style="fill:#C53F3F"></path><circle cx="400.92" cy="270.81" r="7.29" transform="translate(45.49 599.05) rotate(-76.76)" style="fill:#455a64"></circle><g style="opacity:0.2"><path d="M367,276.42l24.47-4.86s-.49-9.17,9.44-9.61l15.79-22.22s-22.05-11.45-40.3,6.42C363.81,258.5,367,276.42,367,276.42Z" style="fill:#fff"></path></g><g style="opacity:0.4"><circle cx="402.17" cy="194.03" r="21.03" transform="translate(121.67 541.46) rotate(-76.84)"></circle></g><path d="M402.17,218.81A24.78,24.78,0,1,1,427,194,24.8,24.8,0,0,1,402.17,218.81Zm0-47.56A22.78,22.78,0,1,0,425,194,22.8,22.8,0,0,0,402.17,171.25Z" style="fill:#C53F3F"></path><path d="M406.38,194a4.21,4.21,0,1,1-4.21-4.2A4.2,4.2,0,0,1,406.38,194Z" style="fill:#455a64"></path><g style="opacity:0.2"><path d="M382.63,197.26l14.11-2.8a5.28,5.28,0,0,1,5.44-5.54l9.1-12.81s-12.71-6.6-23.23,3.71C380.78,186.93,382.63,197.26,382.63,197.26Z" style="fill:#fff"></path></g></g><g id="freepik--device-1--inject-41"><path d="M155.3,454.78H41.92a7.31,7.31,0,0,1-7.46-6.15l-9.63-77.17c-.51-4.13,3-7.75,7.47-7.75H145.67a7.34,7.34,0,0,1,7.47,6.16L162.76,447C163.27,451.16,159.79,454.78,155.3,454.78Z" style="fill:#263238"></path><path d="M163.68,450.8l10.2-46.72a4.93,4.93,0,0,0-4.82-6H58.87a4.93,4.93,0,0,0-4.65,3.3L38.81,445.21a4.93,4.93,0,0,0,4.53,6.56l115.4,2.91A4.94,4.94,0,0,0,163.68,450.8Z" style="fill:#263238"></path><path d="M162,449c-.14,0-2.13-16.57-4.43-37s-4.06-37.08-3.92-37.1,2.13,16.57,4.44,37S162.17,449,162,449Z" style="fill:#455a64"></path><circle cx="89.62" cy="409.13" r="7.67" style="fill:#e0e0e0"></circle><path d="M161.47,436.85c3.9-1.74,7.87,1.45,9.58,4.74,2.1,4,2.22,8.77,3.2,13.14a21.22,21.22,0,0,0,5.81,10.73,28.08,28.08,0,0,0,10.14,6.18,54.4,54.4,0,0,0,13.9,2.69,127.69,127.69,0,0,0,13.69.56c8.58-.16,18.08-1.53,25.26-6.62,3.11-2.2,5.75-6.18,3.8-10-1.64-3.23-5.75-4.06-9-3.91-4.07.2-8.34,1.41-10.82,4.86s-1.62,7.55.9,10.62,6.38,5,10.12,6.3a31.79,31.79,0,0,0,12.36,1.53,29.86,29.86,0,0,0,17.83-7.38c9.47-8.56,11.72-22.34,11.32-34.5-.07-2.33-.25-4.65-.49-7-.17-1.58-2.67-1.6-2.5,0,1.28,12.16.9,26.37-7,36.43s-22.55,12.71-33.86,7.25c-3.14-1.52-6.82-4-7.57-7.63-.86-4.25,3.34-6.92,6.93-7.66,2.81-.58,7.45-.92,9.38,1.77,1.15,1.62.56,3.78-.55,5.24a14.07,14.07,0,0,1-4.9,3.62c-7.33,3.82-15.79,4.67-23.93,4.58-4.16,0-8.34-.29-12.48-.72a45.61,45.61,0,0,1-12.84-2.91,24,24,0,0,1-8.88-6.17c-2.7-3.06-3.86-6.77-4.56-10.73C175,445,173.59,435.38,165.09,434a8.27,8.27,0,0,0-4.88.66c-1.47.65-.2,2.81,1.26,2.16Z" style="fill:#263238"></path></g><g id="freepik--device-2--inject-41"><rect x="185.63" y="418.34" width="290.37" height="20.78" style="fill:#263238"></rect><path d="M185.63,387.19c-.27.81.23,31.15.23,31.15H476l-16-31.41Z" style="fill:#455a64"></path><path d="M235.32,426.53a2.27,2.27,0,1,1-2.27-2.27A2.26,2.26,0,0,1,235.32,426.53Z" style="fill:#455a64"></path><path d="M258.11,426.53a2.27,2.27,0,1,1-2.27-2.27A2.27,2.27,0,0,1,258.11,426.53Z" style="fill:#455a64"></path><path d="M246.27,426.53s-.05-.2-.16-.53a2.32,2.32,0,0,0-.84-1.13,2.13,2.13,0,0,0-2-.24,2,2,0,0,0,0,3.81,2.1,2.1,0,0,0,2-.25,2.23,2.23,0,0,0,.84-1.13c.11-.32.12-.53.16-.53s.09.21,0,.58a2.22,2.22,0,0,1-.81,1.37,2.43,2.43,0,0,1-2.34.41,2.5,2.5,0,0,1,0-4.72,2.46,2.46,0,0,1,2.34.41,2.27,2.27,0,0,1,.81,1.37C246.36,426.33,246.3,426.53,246.27,426.53Z" style="fill:#455a64"></path><path d="M280,426.53s-.06-.2-.17-.53a2.32,2.32,0,0,0-.84-1.13,2.11,2.11,0,0,0-1.95-.24,2,2,0,0,0,0,3.81,2.08,2.08,0,0,0,1.95-.25,2.23,2.23,0,0,0,.84-1.13c.11-.32.13-.53.17-.53s.08.21,0,.58a2.24,2.24,0,0,1-.82,1.37,2.42,2.42,0,0,1-2.34.41,2.5,2.5,0,0,1,0-4.72,2.45,2.45,0,0,1,2.34.41,2.29,2.29,0,0,1,.82,1.37C280.12,426.33,280.07,426.53,280,426.53Z" style="fill:#455a64"></path><path d="M220.76,434.85a7.27,7.27,0,0,1,0-.93c0-.65,0-1.49-.06-2.53,0-2.22-.06-5.28-.11-8.93l.22.22-15.38,0,.26-.26h0v3.29c0,1.08,0,2.14,0,3.18,0,2.08,0,4.05,0,5.9l-.23-.23,11,.11,3.17.07c.74,0,1.15,0,1.17.05a6.94,6.94,0,0,1-1.07.06l-3.12.06-11.19.11h-.23v-.24c0-1.85,0-3.82,0-5.9,0-1,0-2.1,0-3.18v-3.29h0l.26-.26,15.38,0H221v.22c0,3.71-.09,6.81-.12,9.07,0,1,0,1.84-.05,2.48A6.82,6.82,0,0,1,220.76,434.85Z" style="fill:#455a64"></path><path d="M219,426.06a1.8,1.8,0,1,1-1.79-1.8A1.79,1.79,0,0,1,219,426.06Z" style="fill:#455a64"></path><path d="M219,431.25a1.8,1.8,0,1,1-1.79-1.79A1.8,1.8,0,0,1,219,431.25Z" style="fill:#455a64"></path><path d="M313.78,426.53a2.28,2.28,0,1,1-2.28-2.27A2.27,2.27,0,0,1,313.78,426.53Z" style="fill:#455a64"></path><path d="M267.7,426.53a2.28,2.28,0,1,1-2.28-2.27A2.27,2.27,0,0,1,267.7,426.53Z" style="fill:#455a64"></path><path d="M336.56,426.53a2.27,2.27,0,1,1-2.27-2.27A2.27,2.27,0,0,1,336.56,426.53Z" style="fill:#455a64"></path><path d="M324.73,426.53c-.05,0-.06-.2-.17-.53a2.32,2.32,0,0,0-.84-1.13,2.13,2.13,0,0,0-2-.24,2,2,0,0,0,0,3.81,2.1,2.1,0,0,0,2-.25,2.23,2.23,0,0,0,.84-1.13c.11-.32.12-.53.17-.53a1,1,0,0,1,0,.58,2.17,2.17,0,0,1-.81,1.37,2.42,2.42,0,0,1-2.34.41,2.5,2.5,0,0,1,0-4.72,2.45,2.45,0,0,1,2.34.41,2.22,2.22,0,0,1,.81,1.37C324.81,426.33,324.75,426.53,324.73,426.53Z" style="fill:#455a64"></path><path d="M299.21,434.85a7.27,7.27,0,0,1,0-.93c0-.65,0-1.49-.05-2.53,0-2.22-.07-5.28-.12-8.93l.22.22-15.38,0,.26-.26h0v3.29c0,1.08,0,2.14,0,3.18,0,2.08,0,4.05,0,5.9l-.23-.23,11,.11,3.17.07c.74,0,1.15,0,1.17.05a6.78,6.78,0,0,1-1.07.06L295,435l-11.2.11h-.23v-.24c0-1.85,0-3.82,0-5.9,0-1,0-2.1,0-3.18v-3.29h0l.26-.26,15.38,0h.22v.22c-.05,3.71-.09,6.81-.12,9.07,0,1,0,1.84-.05,2.48A4.89,4.89,0,0,1,299.21,434.85Z" style="fill:#455a64"></path><path d="M297.41,426.06a1.8,1.8,0,1,1-1.79-1.8A1.79,1.79,0,0,1,297.41,426.06Z" style="fill:#455a64"></path><path d="M297.41,431.25a1.8,1.8,0,1,1-1.79-1.79A1.8,1.8,0,0,1,297.41,431.25Z" style="fill:#455a64"></path><path d="M446.15,426.53a2.27,2.27,0,1,1-2.27-2.27A2.27,2.27,0,0,1,446.15,426.53Z" style="fill:#455a64"></path><path d="M468.93,426.53a2.27,2.27,0,1,1-2.27-2.27A2.26,2.26,0,0,1,468.93,426.53Z" style="fill:#455a64"></path><path d="M457.1,426.53s-.06-.2-.17-.53a2.32,2.32,0,0,0-.84-1.13,2.11,2.11,0,0,0-1.95-.24,2,2,0,0,0,0,3.81,2.08,2.08,0,0,0,1.95-.25,2.23,2.23,0,0,0,.84-1.13c.11-.32.13-.53.17-.53s.09.21,0,.58a2.26,2.26,0,0,1-.81,1.37,2.45,2.45,0,0,1-2.35.41,2.5,2.5,0,0,1,0-4.72,2.47,2.47,0,0,1,2.35.41,2.32,2.32,0,0,1,.81,1.37C457.19,426.33,457.13,426.53,457.1,426.53Z" style="fill:#455a64"></path><path d="M431.58,434.85a9.07,9.07,0,0,1,0-.93c0-.65,0-1.49-.06-2.53,0-2.22-.07-5.28-.11-8.93l.21.22-15.37,0,.26-.26h0v1.64c0,.56,0,1.1,0,1.65V429c0,2.08,0,4.05,0,5.9l-.23-.23,11,.11,3.17.07a11.13,11.13,0,0,1,1.16.05,6.71,6.71,0,0,1-1.06.06l-3.12.06-11.19.11H416v-.24c0-1.85,0-3.82,0-5.9v-6.47h0c-.23.23.32-.32.27-.26l15.37,0h.22v.22c0,3.71-.08,6.81-.11,9.07,0,1,0,1.84-.06,2.48A3.81,3.81,0,0,1,431.58,434.85Z" style="fill:#455a64"></path><path d="M429.79,426.06a1.8,1.8,0,1,1-1.8-1.8A1.8,1.8,0,0,1,429.79,426.06Z" style="fill:#455a64"></path><path d="M429.79,431.25a1.8,1.8,0,1,1-1.8-1.79A1.81,1.81,0,0,1,429.79,431.25Z" style="fill:#455a64"></path><path d="M211.83,413.08c-.14,0-.69-4.79-1.23-10.71s-.84-10.75-.7-10.76.69,4.78,1.22,10.71S212,413.07,211.83,413.08Z" style="fill:#263238"></path><path d="M232.2,413.08c-.14,0-.69-4.79-1.22-10.71s-.85-10.75-.71-10.76a107,107,0,0,1,1.23,10.71C232,408.25,232.35,413.07,232.2,413.08Z" style="fill:#263238"></path><path d="M252.58,413.08c-.15,0-.69-4.79-1.23-10.71s-.84-10.75-.7-10.76.69,4.78,1.22,10.71S252.72,413.07,252.58,413.08Z" style="fill:#263238"></path><path d="M273,413.08c-.14,0-.69-4.79-1.22-10.71s-.85-10.75-.71-10.76.69,4.78,1.23,10.71S273.1,413.07,273,413.08Z" style="fill:#263238"></path><ellipse cx="366.17" cy="401.75" rx="59.97" ry="12" style="fill:#263238"></ellipse><ellipse cx="366.17" cy="396.13" rx="59.97" ry="12" style="fill:#e0e0e0"></ellipse><g style="opacity:0.30000000000000004"><path d="M366.9,396.13l-15-11.67s-23.89.79-34.84,5Z" style="fill:#fff"></path></g><g style="opacity:0.30000000000000004"><path d="M420.72,401.12l-50.55-6.31H366.9L391.55,407S412.15,405.38,420.72,401.12Z" style="fill:#fff"></path></g><path d="M336.19,394.81c0,2.95,13.42,5.35,30,5.35s30-2.4,30-5.35-13.43-5.35-30-5.35S336.19,391.85,336.19,394.81Z" style="fill:#f5f5f5"></path><path d="M365.52,395.94a1.9,1.9,0,0,0,2.76,0v-5.26a2.68,2.68,0,0,0-2.76,0Z" style="fill:#263238"></path><polygon points="447.04 401.02 426.44 389.56 397.95 381.59 398.22 380.63 426.87 388.66 447.52 400.15 447.04 401.02" style="fill:#263238"></polygon><path d="M403.17,380.2v2l-4.62,1.8s-9.24-2.39-9.36-2.3a10.71,10.71,0,0,1,0-1.88l5.14-1.61Z" style="fill:#263238"></path><rect x="437.61" y="404.05" width="25.51" height="5.45" transform="translate(900.73 813.55) rotate(180)" style="fill:#263238"></rect><path d="M437.61,404.05c-.34-.64-4.06-7.92-4.06-7.92H456l7.14,7.92Z" style="fill:#e0e0e0"></path><polygon points="433.55 396.13 433.55 401.75 437.61 409.5 437.61 404.05 433.55 396.13" style="fill:#263238"></polygon><path d="M290,418.28c-.14,0-1.24-6.92-2.45-15.51s-2.07-15.56-1.93-15.58,1.24,6.92,2.45,15.51S290.18,418.26,290,418.28Z" style="fill:#263238"></path><rect x="206.96" y="406.71" width="8.9" height="2.75" style="fill:#263238"></rect><rect x="226.15" y="395.99" width="8.9" height="2.75" style="fill:#263238"></rect><rect x="247.17" y="405.95" width="8.9" height="2.75" style="fill:#263238"></rect><rect x="266.75" y="399.51" width="8.9" height="2.75" style="fill:#263238"></rect></g><g id="freepik--Character--inject-41"><path d="M301.82,166.46c2.91-10.3-1.49-21-6.23-30.62a184.23,184.23,0,0,0-12.35-20.32c5.5-9.45.75-24.39-5.59-29.15s-13.29-3.4-14.31,4.46l-8.15,16.87q-5.88,36.55-11.78,73.1c-2.38,14.78,8.08,20.11,17.86,31.44h0A22,22,0,0,1,276,222.83c3.23,5.63,7.13,12.13,7.29,13.67,9.39-.72,25.92-6.08,26.47-15.48,1.14-19.79-12.71-29.48-12.95-33.93C296.38,179.57,298.81,177.1,301.82,166.46Z" style="fill:#263238"></path><ellipse cx="287.43" cy="143.55" rx="15.91" ry="19.99" transform="translate(-26.7 76.13) rotate(-14.43)" style="fill:#455a64"></ellipse><path d="M290.25,119.56a38.08,38.08,0,0,0-37.89-35.1h-2c-21.27,1.2-32.13,19.92-30.34,41.15l5.62,81.79,46.62,13.31-.12-29s20.45-3.13,20.74-23.57C293.05,158.3,291.69,138,290.25,119.56Z" style="fill:#ffbf9d"></path><path d="M256.93,130c-.36.38-2.57-1.26-5.71-1.26s-5.45,1.57-5.79,1.18c-.16-.17.2-.86,1.21-1.58a8,8,0,0,1,4.63-1.42,7.74,7.74,0,0,1,4.55,1.47C256.78,129.18,257.11,129.87,256.93,130Z" style="fill:#263238"></path><path d="M272.34,191.72a49.63,49.63,0,0,1-26.76-7.9s6.27,14.72,26.66,12.93Z" style="fill:#ff9a6c"></path><path d="M280.14,140.61a2.92,2.92,0,0,1-2.82,2.94,2.8,2.8,0,0,1-3-2.64,2.92,2.92,0,0,1,2.82-2.94A2.79,2.79,0,0,1,280.14,140.61Z" style="fill:#263238"></path><path d="M285.83,129.55c-.36.37-2.57-1.27-5.71-1.26s-5.44,1.56-5.78,1.18c-.17-.17.2-.86,1.21-1.59a8,8,0,0,1,4.63-1.41,7.64,7.64,0,0,1,4.54,1.47C285.69,128.69,286,129.37,285.83,129.55Z" style="fill:#263238"></path><path d="M253.48,141.72a2.93,2.93,0,0,1-2.82,2.94,2.8,2.8,0,0,1-3-2.64,2.93,2.93,0,0,1,2.82-2.94A2.79,2.79,0,0,1,253.48,141.72Z" style="fill:#263238"></path><g style="opacity:0.6000000000000001"><circle cx="282.06" cy="137.3" r="13.18" transform="translate(-14.47 239.66) rotate(-45)"></circle></g><g style="opacity:0.6000000000000001"><circle cx="252.3" cy="137.3" r="13.18" transform="translate(29.5 318.59) rotate(-67.69)"></circle></g><path d="M265,132.11c.22.16,1.19-1,2.78-1s2.43,1.37,2.66,1.23.1-.49-.31-1a3.09,3.09,0,0,0-2.3-1.21,3.15,3.15,0,0,0-2.42,1C264.93,131.62,264.86,132.05,265,132.11Z" style="fill:#455a64"></path><path d="M266.31,153.38c0-.18,1.94-.51,5.1-.91.81-.08,1.57-.24,1.7-.79a4,4,0,0,0-.53-2.37c-.75-1.94-1.53-4-2.36-6.11-3.27-8.71-5.64-15.86-5.29-16s3.29,6.82,6.57,15.52l2.26,6.15a4.67,4.67,0,0,1,.41,3.15,2,2,0,0,1-1.32,1.17,5.61,5.61,0,0,1-1.37.18C268.3,153.55,266.32,153.56,266.31,153.38Z" style="fill:#263238"></path><path d="M257.07,155.53c.51,0,.51,3.38,3.42,5.81s6.54,2.06,6.57,2.53c0,.22-.81.66-2.35.7a8.49,8.49,0,0,1-5.48-1.92,7.37,7.37,0,0,1-2.65-4.87C256.45,156.36,256.83,155.51,257.07,155.53Z" style="fill:#263238"></path><path d="M255.8,117.76c-.31.85-3.45.44-7.13.88s-6.67,1.44-7.16.67c-.21-.37.31-1.17,1.51-2a12.44,12.44,0,0,1,10.88-1.18C255.25,116.68,255.93,117.36,255.8,117.76Z" style="fill:#263238"></path><path d="M284.7,120.45c-.56.72-2.72,0-5.32-.07s-4.8.47-5.31-.28c-.22-.36.13-1.07,1.09-1.75a7.43,7.43,0,0,1,4.33-1.16,7.28,7.28,0,0,1,4.23,1.45C284.64,119.37,284.94,120.11,284.7,120.45Z" style="fill:#263238"></path><path d="M293.91,119.58l-2.46,9.82a30.16,30.16,0,0,1-4.4-8.34c-2.19-6.36-2.06-9.56-5.75-15.23a12.24,12.24,0,0,0-2.62-2.84,16.13,16.13,0,0,0-11.8-3.31c-3.93.39-8.46,1.28-12.08-1.1-8.05-5.3-14.1-2.64-14.1-2.64l-2.95,1.48L239,108.15c.87,8.32-1.06,14.07-3.94,18.88a26.16,26.16,0,0,0-3.5,9,12.2,12.2,0,0,0,.33,5.91c1.75,5.73,4.16,11.5,3.64,17.46-.67,7.66-6.11,14.5-5.8,22.18a51,51,0,0,0,2.16,13.29,7.2,7.2,0,0,1-5.46,9.63l-25.3,8c-8.38-13.24,1-19.2,6.61-24.33,1.75-1.59,3.31-2.94,1.75-6.24-3.82-8.06-12.49-8.65-10.45-26.4,1.25-10.87,7.42-13.71,8.49-19.6.73-4.08-1.4-8.36-.3-12.35s4.74-6.21,7.78-9c-.05-2.94-.81-5.89,0-8.72,1-3.38,3.65-7.79,6.72-9.55a23.83,23.83,0,0,1,6.71-2.74s0,.16,0-.17c0-5.86,10.18-14.65,13.53-16.26,10.69-5.14,16.27-.53,28,1.09s19,3.44,22.88,14.63c0,0,2.28,8.22,2.32,14.26C295.31,115.4,293.91,119.58,293.91,119.58Z" style="fill:#263238"></path><path d="M210,129.54a1.38,1.38,0,0,1-.14-.44,8.08,8.08,0,0,1-.24-1.3,12.37,12.37,0,0,1,.44-4.84,13.47,13.47,0,0,1,3.75-6.14,12.1,12.1,0,0,1,3.61-2.32,26.89,26.89,0,0,1,4.38-1.36c1.52-.37,3-.7,4.38-1.15a18.45,18.45,0,0,0,3.78-1.75,18.94,18.94,0,0,0,5.2-4.75,23.41,23.41,0,0,0,3-5.8,2.48,2.48,0,0,1-.09.45,8.77,8.77,0,0,1-.38,1.27,17.35,17.35,0,0,1-2.26,4.3,18.76,18.76,0,0,1-5.25,4.94,17.68,17.68,0,0,1-3.87,1.82c-1.41.47-2.91.81-4.42,1.18a27.67,27.67,0,0,0-4.3,1.31,12.29,12.29,0,0,0-3.49,2.21,13.43,13.43,0,0,0-3.72,5.9,12.87,12.87,0,0,0-.58,4.71,9.81,9.81,0,0,0,.13,1.3A1.6,1.6,0,0,1,210,129.54Z" style="fill:#455a64"></path><path d="M223.11,140.74c-.35-.15-14-4.18-13.62,9.79s14.36,10.67,14.37,10.27S223.11,140.74,223.11,140.74Z" style="fill:#ffbf9d"></path><path d="M220.67,155.64c-.07,0-.24.17-.65.38a2.47,2.47,0,0,1-1.82.09c-1.49-.5-2.8-2.81-2.95-5.32a8.14,8.14,0,0,1,.58-3.51,2.82,2.82,0,0,1,1.78-1.92,1.23,1.23,0,0,1,1.45.62c.2.39.12.67.2.69s.29-.24.16-.82a1.54,1.54,0,0,0-.58-.85,1.8,1.8,0,0,0-1.35-.32,3.43,3.43,0,0,0-2.48,2.24,8.31,8.31,0,0,0-.73,3.92c.18,2.81,1.7,5.41,3.73,5.93a2.59,2.59,0,0,0,2.22-.44C220.65,156,220.71,155.66,220.67,155.64Z" style="fill:#ff9a6c"></path><path d="M233,98.58l0,0a1.22,1.22,0,0,0,.27,0Z" style="fill:#263238"></path><path d="M220,140.38c.09.27,4.33-1,9.64-2.09s9.67-1.74,9.64-2-4.48-.1-9.86,1.05S219.89,140.13,220,140.38Z" style="fill:#455a64"></path><ellipse cx="219.13" cy="148.17" rx="15.91" ry="19.99" transform="translate(-30 59.26) rotate(-14.43)" style="fill:#455a64"></ellipse><path d="M217.46,133a10.32,10.32,0,0,0-2.93,0,8.47,8.47,0,0,0-3.11,1.4,11.33,11.33,0,0,0-3,3.37,13.48,13.48,0,0,0-1.77,5.23,19.58,19.58,0,0,0,2.13,13.15,15.87,15.87,0,0,0,5.17,5.56h0a7,7,0,0,0,3.12,1.13,9.46,9.46,0,0,0,7.46-2.7A13.2,13.2,0,0,0,228,153.5a20.31,20.31,0,0,0-1.62-12.8,14.32,14.32,0,0,0-5.89-6.44,14.11,14.11,0,0,0-2.21-1c-.53-.17-.81-.24-.81-.26l.22,0,.62.14a11.49,11.49,0,0,1,2.28.88,14.31,14.31,0,0,1,6.12,6.45,20.57,20.57,0,0,1,1.76,13.07,13.77,13.77,0,0,1-3.6,7,9.93,9.93,0,0,1-7.87,2.85,7.51,7.51,0,0,1-3.36-1.22l0,0a16.29,16.29,0,0,1-5.36-5.77A20,20,0,0,1,206.18,143a14,14,0,0,1,1.89-5.36,11.46,11.46,0,0,1,3.19-3.41,8.61,8.61,0,0,1,3.24-1.36,7.76,7.76,0,0,1,2.21,0A4.6,4.6,0,0,1,217.46,133Z" style="fill:#263238"></path><path d="M225.06,89.15c3.51-4.93,6.64-6.91,9.14-9.12a33.66,33.66,0,0,1,10.49-4.69c9.16-2.24,19.69,1.84,19.69,1.84-13-.26-21.57.6-28.22,7.38-14,18-13.82,45.89-13.82,45.89l-7.83-.7S212.89,106.23,225.06,89.15Z" style="fill:#455a64"></path><path d="M212,129.51a4,4,0,0,1,1.77-.85,11.16,11.16,0,0,1,4.74-.24,20.51,20.51,0,0,1,4.55,1.27,6.4,6.4,0,0,1,1.77.83A8.41,8.41,0,0,1,223,130a30.6,30.6,0,0,0-4.51-1.11,13.05,13.05,0,0,0-4.57.09C212.74,129.26,212.07,129.59,212,129.51Z" style="fill:#263238"></path><path d="M274.08,78.89a24.1,24.1,0,0,0-5.9-.2,19.17,19.17,0,0,0-6.12,1.75,18.59,18.59,0,0,0-6.18,4.67,11.37,11.37,0,0,0-3,7,6.18,6.18,0,0,0,.78,3.2,7.45,7.45,0,0,0,1.91,2.19,17.75,17.75,0,0,0,3.75,2.11,12.22,12.22,0,0,1,1.46.66,8.08,8.08,0,0,1-1.53-.47,15.57,15.57,0,0,1-3.9-2,7.75,7.75,0,0,1-2.07-2.27,6.64,6.64,0,0,1-.88-3.42,11.62,11.62,0,0,1,3.11-7.29,19,19,0,0,1,12.65-6.44,16.49,16.49,0,0,1,4.38.17,10.24,10.24,0,0,1,1.16.26A1.27,1.27,0,0,1,274.08,78.89Z" style="fill:#e0e0e0"></path><path d="M293.34,96.4a10.18,10.18,0,0,0-.39-1.66A7.31,7.31,0,0,0,290,91.28a20.92,20.92,0,0,0-6.41-2.48,28,28,0,0,0-8.42-.63A27.6,27.6,0,0,0,267,90.09a14,14,0,0,0-5.71,3.71,6.57,6.57,0,0,0-1.6,4.22,9.58,9.58,0,0,0,.25,1.69,1.62,1.62,0,0,1-.2-.41,4.76,4.76,0,0,1-.25-1.27A6.57,6.57,0,0,1,261,93.57a14.15,14.15,0,0,1,5.82-3.92,27.56,27.56,0,0,1,8.36-2,27.93,27.93,0,0,1,8.57.68A20.44,20.44,0,0,1,290.21,91a7.29,7.29,0,0,1,2.93,3.69,4.81,4.81,0,0,1,.23,1.28C293.38,96.25,293.36,96.4,293.34,96.4Z" style="fill:#455a64"></path><path d="M251.08,157.51A4.25,4.25,0,0,1,253,155a4.35,4.35,0,0,1,2.95-1c0,.16-1.31.48-2.64,1.46S251.22,157.59,251.08,157.51Z" style="fill:#263238"></path><path d="M268.83,186.1a5.14,5.14,0,0,1-1.2-2.66,5.22,5.22,0,0,1-.07-2.92,22.29,22.29,0,0,1,.58,2.8A20.13,20.13,0,0,1,268.83,186.1Z" style="fill:#263238"></path><path d="M271.91,187.28a10,10,0,0,1-.56-3.23,10.24,10.24,0,0,1,0-3.28,10.48,10.48,0,0,1,.55,3.23A10.8,10.8,0,0,1,271.91,187.28Z" style="fill:#263238"></path><path d="M274.49,185.16a9.84,9.84,0,0,1,.16-2.47,10.22,10.22,0,0,1,.28-2.46,6.86,6.86,0,0,1-.44,4.93Z" style="fill:#263238"></path><path d="M277.38,183.72a16.31,16.31,0,0,1,.4-4.4,4.16,4.16,0,0,1,.17,2.23A4.07,4.07,0,0,1,277.38,183.72Z" style="fill:#263238"></path><path d="M264.71,183.72a4.07,4.07,0,0,1-.57-2.17,4.16,4.16,0,0,1,.17-2.23,16.31,16.31,0,0,1,.4,4.4Z" style="fill:#263238"></path><path d="M314.53,267.91l44.75,45,19.48,48.37,23-1.9s-7.09-45.84-12.55-59.27-52.86-64.23-52.86-64.23Z" style="fill:#ffbf9d"></path><path d="M360.85,263.6c-3.58,3.3-4,9.33-7.66,12.55-2.67,2.37-6.52,2.73-9.78,4.18a13.83,13.83,0,0,0-8.07,8.61l4,4c1.33-4.15,3.21-6,7.12-7.79,3.26-1.45,7.11-1.81,9.78-4.18,3.64-3.22,4-9.18,7.53-12.47l.82-.52Z" style="fill:#263238"></path><path d="M419.32,391.86c.09-.29-.42-10.53-1.63-14.05s-10.78-10.94-13.36-13.25a8,8,0,0,1-2.55-5.54l-23,1.9s.72,3.86-.5,5a91,91,0,0,0-6.34,7.71c-1.32,1.82-5.58,1.71-5.2,4.22s1.66,4.28,4.34,4.44,4.55-.68,6.8-.36,2.95,1.73,6.54.13a20.63,20.63,0,0,0,6.29-4.72l4,1s5.63,20.93,8.25,21.81,4.33,1.46,4.47-2.13-2.54-17.44-2.54-17.44l.24-2.44s3.43,3.22,3.84,5.42a38.41,38.41,0,0,0,2,7.68c2.23,4.78,5.46,1.17,5.46,1.17h0S418.58,394.06,419.32,391.86Z" style="fill:#ffbf9d"></path><path d="M389.23,376.54a5,5,0,0,1,1.18.23c.75.17,1.83.42,3.18.7s3,.59,4.74.86a5.32,5.32,0,0,0,2.69-.05,1.56,1.56,0,0,0,.91-.89,2.24,2.24,0,0,0,0-1.36,4.89,4.89,0,0,0-1.49-2.4c-.85-.51-1.66-1-2.42-1.54-1.52-1-2.86-1.95-4-2.74l-2.69-1.84a5.94,5.94,0,0,1-1-.7,5.07,5.07,0,0,1,1.08.53c.67.38,1.62,1,2.78,1.71l4.05,2.64c.77.49,1.57,1,2.42,1.51a3.13,3.13,0,0,1,1.08,1.21,9.89,9.89,0,0,1,.65,1.48,2.68,2.68,0,0,1-.06,1.7,2,2,0,0,1-1.2,1.16,5.6,5.6,0,0,1-2.95.06c-1.8-.3-3.41-.65-4.75-1s-2.42-.64-3.16-.87A5.09,5.09,0,0,1,389.23,376.54Z" style="fill:#ff9a6c"></path><path d="M375.3,372.69a11.78,11.78,0,0,1,6.16,7.47,22.72,22.72,0,0,0-6.16-7.47Z" style="fill:#ff9a6c"></path><path d="M374.39,377.06c-.13.06-.6-1-1.74-1.52a8.49,8.49,0,0,0-2.27-.46c0-.06.23-.22.7-.29a3.07,3.07,0,0,1,1.8.28,3,3,0,0,1,1.32,1.26C374.43,376.74,374.45,377,374.39,377.06Z" style="fill:#ff9a6c"></path><path d="M406.58,370.27a3.33,3.33,0,0,1,.92.45c.56.32,1.38.8,2.34,1.47a15.67,15.67,0,0,1,3.1,2.74,10,10,0,0,1,2.21,4.58c.36,1.78.44,3.48.61,5s.26,2.88.36,4.08.17,2.11.2,2.76a4.25,4.25,0,0,1,0,1,3.62,3.62,0,0,1-.21-1c-.09-.65-.22-1.58-.36-2.74s-.3-2.57-.48-4.07-.29-3.23-.64-4.95a9.85,9.85,0,0,0-2.06-4.38,17.12,17.12,0,0,0-2.95-2.75C407.77,371.1,406.53,370.34,406.58,370.27Z" style="fill:#ff9a6c"></path><path d="M401.67,371.88a17.16,17.16,0,0,1,2.05,2.83,17.92,17.92,0,0,1,1.88,2.93,9,9,0,0,1-2.31-2.64A9.27,9.27,0,0,1,401.67,371.88Z" style="fill:#ff9a6c"></path><path d="M359.74,315a3,3,0,0,1,.16-.87,7.33,7.33,0,0,1,.29-1,12.38,12.38,0,0,1,.5-1.29,18.71,18.71,0,0,1,1.73-3.14,21.64,21.64,0,0,1,2.87-3.34,21.94,21.94,0,0,1,3.54-2.64,20.38,20.38,0,0,1,3.25-1.52,14,14,0,0,1,2.34-.63,3.36,3.36,0,0,1,.88-.11c0,.1-1.22.34-3.08,1.09a21.16,21.16,0,0,0-3.15,1.59,22.75,22.75,0,0,0-3.42,2.6,23.64,23.64,0,0,0-2.84,3.23,22.37,22.37,0,0,0-1.79,3C360.15,313.81,359.84,315,359.74,315Z" style="fill:#ff9a6c"></path><path d="M367,269.82c-3.57,3.3-4,9.33-7.66,12.55-2.67,2.37-6.52,2.73-9.77,4.18a13.85,13.85,0,0,0-8.08,8.61l4,4c1.34-4.15,3.21-6,7.13-7.79,3.25-1.45,7.1-1.81,9.77-4.18,3.64-3.22,4-9.18,7.54-12.47l.82-.52Z" style="fill:#263238"></path><path d="M194.54,210.32c12.71-4.06,21.53-5,35.79-7.89,14.26,10.07,25.58,11.72,42-1.13L302,203.6l10.63,62.59,1.07,94.5,8.08,26.49H190.06S191.52,217.42,194.54,210.32Z" style="fill:#C53F3F"></path><path d="M264.14,254.16l-20,42.27a.45.45,0,0,0,.4.64h18.41a.45.45,0,0,1,.43.57l-7.84,25.94a.45.45,0,0,0,.81.37l24.17-38.67a.44.44,0,0,0-.38-.68H258c-.67,0,4.57-20.74,7-30.14A.45.45,0,0,0,264.14,254.16Z" style="fill:#f5f5f5"></path><rect x="267.86" y="317.15" width="2.2" height="11.29" rx="1.08" transform="translate(591.75 53.82) rotate(90)" style="fill:#f5f5f5"></rect><path d="M291.07,204.72a30.35,30.35,0,0,1,27.2,5.11c13.08,10.14,51,56.16,51,56.16L327,293.3s-29-37.78-29.72-39.58S280.37,222.52,291.07,204.72Z" style="fill:#C53F3F"></path><path d="M312.56,241.58a11.57,11.57,0,0,1,.13,1.69c.05,1.08.1,2.65.13,4.59.07,3.89.06,9.25,0,15.17s-.12,11.2-.16,15.16c0,1.88,0,3.42,0,4.6a11.53,11.53,0,0,1-.07,1.69,10,10,0,0,1-.13-1.69c-.06-1.08-.1-2.65-.14-4.59-.07-3.89-.06-9.25,0-15.17s.11-11.2.15-15.16c0-1.88,0-3.43,0-4.6A9.88,9.88,0,0,1,312.56,241.58Z" style="fill:#263238"></path><path d="M173.06,296.8s2.42,29.68,8.49,37.92,16,25.27,51.11,37.55l14.89-14.1-33.86-39.72-6.06-40.2Z" style="fill:#ffbf9d"></path><path d="M209.8,293.57c-5,.87-8.74,5.74-13.74,6.52-3.68.58-7.28-1.17-11-1.68a14.93,14.93,0,0,0-11.92,3l.87,5.67a13,13,0,0,1,11-3c3.68.5,7.28,2.25,11,1.68,5-.79,8.6-5.65,13.59-6.53h1Z" style="fill:#263238"></path><path d="M231.81,368.64s1.24,9.64,4.83,12.26,6.23,2.29,6.23,2.29l2.18,1.79s-1.09,14.39,2.5,16,4.52-1.64,5-2.78a27.72,27.72,0,0,0,.93-3.76s-.47,14.71,1.4,16.35a3.09,3.09,0,0,0,3.9,0s3,1.78,5.3.72,3.12-7.59,3.12-7.59-.16,5.56,4.52,5.07c0,0,1.4-.66,1.4-3.43s1.87-10.8,2.18-13.9-.78-20.93-.93-21.42-.32-3.92-7.8-5.07-19-7-19-7Z" style="fill:#ffbf9d"></path><path d="M253.28,397.25a62.56,62.56,0,0,1-.12-8.18,61.36,61.36,0,0,1,.4-8.17,67,67,0,0,1,.12,8.18A66,66,0,0,1,253.28,397.25Z" style="fill:#ff9a6c"></path><path d="M260.89,379.43a5.23,5.23,0,0,1,.2,1.24c.1.79.2,1.95.29,3.39a83.2,83.2,0,0,1-.15,11.22,81.66,81.66,0,0,1-1.66,11.11c-.31,1.4-.59,2.53-.82,3.3a5.5,5.5,0,0,1-.4,1.19,6.42,6.42,0,0,1,.2-1.24c.17-.78.4-1.92.66-3.32a104.91,104.91,0,0,0,1.5-11.08,108.53,108.53,0,0,0,.3-11.17c0-1.43-.08-2.59-.12-3.39A6.75,6.75,0,0,1,260.89,379.43Z" style="fill:#ff9a6c"></path><path d="M268,377.85a4.94,4.94,0,0,1,.23,1c.12.67.25,1.64.37,2.85a63.25,63.25,0,0,1,.13,9.46c-.21,3.69-.63,7-.94,9.41-.16,1.2-.3,2.17-.41,2.83a3.69,3.69,0,0,1-.22,1,5.08,5.08,0,0,1,0-1.06c.07-.79.15-1.74.25-2.85.21-2.41.57-5.73.78-9.4a81.66,81.66,0,0,0,0-9.4C268.05,379.35,267.87,377.87,268,377.85Z" style="fill:#ff9a6c"></path><path d="M253,375.41a11.09,11.09,0,0,0-3.81.81,12.16,12.16,0,0,0-3.07,2.43c-.05,0,.11-.47.56-1.07a6.39,6.39,0,0,1,2.28-1.83,6.15,6.15,0,0,1,2.86-.61C252.57,375.18,253,375.35,253,375.41Z" style="fill:#ff9a6c"></path><path d="M261.25,370.2a10.65,10.65,0,0,0-3.58.85,11.83,11.83,0,0,0-2.84,2.37c-.05,0,.08-.45.49-1a6,6,0,0,1,2.11-1.79,5.66,5.66,0,0,1,2.7-.63C260.84,370,261.26,370.14,261.25,370.2Z" style="fill:#ff9a6c"></path><path d="M266.88,368.13a18.35,18.35,0,0,0-2.4.35c-1.27.39-2.05,1.2-2.17,1.09s.58-1.13,2-1.58A2.85,2.85,0,0,1,266.88,368.13Z" style="fill:#ff9a6c"></path><path d="M213.19,317.79c0,.1-1.24,0-3.23,0a28.7,28.7,0,0,0-3.46.34,32,32,0,0,0-4.14,1,31.38,31.38,0,0,0-7,3.26c-1.68,1.05-2.66,1.81-2.71,1.74s.2-.24.62-.61a22.17,22.17,0,0,1,1.89-1.44,26.43,26.43,0,0,1,11.29-4.41,23.17,23.17,0,0,1,3.53-.23,17,17,0,0,1,2.37.15A3.2,3.2,0,0,1,213.19,317.79Z" style="fill:#ff9a6c"></path><path d="M211.22,302c-5,.88-8.75,5.75-13.75,6.53-3.67.58-7.27-1.17-11-1.68a14.91,14.91,0,0,0-11.91,3l.87,5.67a13,13,0,0,1,11-3c3.69.51,7.29,2.26,11,1.68,5-.78,8.6-5.65,13.59-6.52h1Z" style="fill:#263238"></path><path d="M241.44,360.9c-.5-.58-1.41-1.55-2.42-2.7-1.56-1.78-3-3.09-3.14-2.95h0c-.17-.11-1,1.09-2.33,2.06a6.05,6.05,0,0,1-1.89.93,7.1,7.1,0,0,1-.73.14c-.11-.07-.19-.11-.21-.08s1.09,1.59,2.66,3.38a22.69,22.69,0,0,0,2,2,1.64,1.64,0,0,0-.54,0,1.85,1.85,0,1,0,2.24,1.36,1.89,1.89,0,0,0-.79-1.11c-.49-.58-1.4-1.54-2.41-2.69-.49-.55-1-1.05-1.39-1.49a4.85,4.85,0,0,0,2.6-1.08,4.94,4.94,0,0,0,1.66-2.18c.47.59,1.1,1.32,1.81,2.13a21.36,21.36,0,0,0,2,2,1.68,1.68,0,0,0-.54,0,1.87,1.87,0,1,0,1.46.26Zm-6.76-2.72a16.59,16.59,0,0,1-2.38,1.41c-.38-.38-.71-.69-1-.91h.41a4.21,4.21,0,0,0,2.19-.85,5.09,5.09,0,0,0,2-2.49,5,5,0,0,0,.66,1A14.37,14.37,0,0,1,234.68,358.18Z" style="fill:#263238"></path><path d="M201.36,208.24c-1.21,0-24.05,3.39-28.71,21C169,243,167.38,305.1,167.38,305.1l46.48-8.65-7.67-60.19Z" style="fill:#C53F3F"></path><path d="M167.38,305.1s.29-.08.84-.2l2.44-.5,9-1.75,29.62-5.56,5.26-1-.21.29c-1.62-10.4-2.66-19.67-3.24-26.34-.29-3.33-.48-6-.6-7.86,0-.88-.09-1.59-.11-2.12a4.17,4.17,0,0,1,0-.74,3.9,3.9,0,0,1,.1.73c0,.53.12,1.23.21,2.12.18,1.89.44,4.55.76,7.84.67,6.65,1.77,15.9,3.4,26.29l0,.25-.25,0-5.26,1L179.69,303l-9,1.58-2.45.41A4.26,4.26,0,0,1,167.38,305.1Z" style="fill:#263238"></path></g></svg>
